<?xml version="1.0" encoding="utf-8"?>
<!-- Generator: Adobe Illustrator 19.2.1, SVG Export Plug-In . SVG Version: 6.00 Build 0)  -->
<svg version="1.1" xmlns="http://www.w3.org/2000/svg" xmlns:xlink="http://www.w3.org/1999/xlink" x="0px" y="0px"
	 viewBox="0 0 1600 808.5" style="enable-background:new 0 0 1600 808.5;" xml:space="preserve">
<style type="text/css">
	.st0{fill:none;}
	.st1{fill:#00275D;}
	.st2{fill:#65B8EF;}
	.st3{fill:#FFC55F;}
	.st4{fill:none;stroke:#00275D;stroke-width:0;stroke-linecap:round;stroke-linejoin:round;}
	.st5{fill:none;stroke:#DD9B26;stroke-width:0;stroke-linecap:round;stroke-linejoin:round;}
	.st6{fill:#CC972E;}
</style>
<g id="Main">
	<polygon class="st0" points="100,346.5 200,288.7 100,346.5 200,404.2 	"/>
	<polygon class="st0" points="100,462 100,462 200,519.7 	"/>
	<polygon class="st0" points="200,173.2 200,57.7 200,57.7 200,173.2 	"/>
	<polygon class="st0" points="335,672.8 300,693 300,693 335,672.8 	"/>
	<polygon class="st0" points="265,20.2 300,0 300,0 265,20.2 	"/>
	<polygon class="st0" points="100,0 100,0 200,57.7 	"/>
	<polygon class="st0" points="100,115.5 100,115.5 200,57.7 	"/>
	<polygon class="st0" points="35,424.5 0,404.2 100,346.5 0,404.2 35,424.5 	"/>
	<polygon class="st0" points="100,346.5 0,288.7 0,288.7 100,346.5 	"/>
	<polygon class="st0" points="35,615 0,635.2 0,519.8 0,635.3 	"/>
	<polygon class="st0" points="400,635.2 400,635.2 300,577.5 	"/>
	<polygon class="st0" points="0,750.7 100,693 100,693 0,750.7 	"/>
	<polygon class="st0" points="300,231 300,115.5 300,231 335,210.8 	"/>
	<polygon class="st0" points="200,404.3 300,462 300,462 200,404.2 200,519.7 200,635.2 200,519.7 	"/>
	<polygon class="st0" points="200,519.8 300,462 200,519.7 	"/>
	<polygon class="st0" points="400,635.3 400,750.7 400,635.2 	"/>
	<polygon class="st0" points="300,346.5 300,462 300,346.5 	"/>
	<polygon class="st0" points="300,115.5 300,115.5 400,173.2 400,173.2 	"/>
	<polygon class="st1" points="335,210.8 335,176.1 365,193.5 400,173.2 300,115.5 300,115.5 300,231 	"/>
	<polygon class="st1" points="365,228.1 365,193.5 335,210.8 	"/>
	<polygon class="st2" points="265,176.1 265,210.8 265,210.8 300,231 300,115.5 200,173.2 235,193.5 	"/>
	<polygon class="st3" points="400,132.8 370,115.5 400,98.2 400,98.2 400,57.8 300,115.5 400,173.2 	"/>
	<polygon class="st2" points="370,115.5 400,132.8 400,98.2 	"/>
	<polygon class="st1" points="300,306.1 270,288.7 300,271.4 300,231 300,231 300,231 200,288.7 300,346.5 	"/>
	<polygon class="st1" points="330,288.7 300,271.4 300,306.1 	"/>
	<polygon class="st3" points="235,384 235,384 235,349.4 265,366.7 300,346.5 200,288.7 200,404.2 235,384 	"/>
	<polygon class="st1" points="235,193.5 235,228.1 265,210.8 265,210.8 	"/>
	<polygon class="st3" points="300,346.5 335,366.7 365,349.4 365,384 400,404.2 400,404.2 400,404.2 400,288.7 	"/>
	<polygon class="st1" points="365,384 335,401.4 335,366.7 300,346.5 300,462 400,404.2 	"/>
	<polygon class="st1" points="365,349.4 335,366.7 365,384 	"/>
	<polygon class="st3" points="370,462 400,479.3 400,444.7 	"/>
	<polygon class="st2" points="300,346.5 300,346.5 400,288.8 400,288.7 300,231 300,271.4 300,271.4 330,288.7 300,306.1 300,346.5 
		265,366.7 265,366.7 265,401.4 235,384 200,404.2 300,462 	"/>
	<polygon class="st1" points="235,384 265,401.4 265,366.7 235,384 	"/>
	<polygon class="st1" points="300,577.5 300,577.5 300,577.5 300,693 335,672.8 335,638.1 365,655.5 400,635.3 400,635.2 	"/>
	<polygon class="st1" points="365,690.1 365,655.5 335,672.8 	"/>
	<polygon class="st2" points="300,577.5 200,635.2 235,655.5 265,638.1 265,672.8 265,672.8 265,672.8 300,693 300,693 	"/>
	<polygon class="st3" points="400,635.2 400,594.8 370,577.5 400,560.2 400,560.2 400,519.8 300,577.5 300,577.5 	"/>
	<polygon class="st2" points="370,577.5 400,594.8 400,560.2 	"/>
	<polygon class="st2" points="400,750.7 300,693 300,733.4 330,750.7 300,768.1 300,808.5 300,808.5 400,750.8 	"/>
	<polygon class="st1" points="270,750.7 300,733.4 300,693 300,693 300,693 200,750.7 200,750.7 165,730.5 135,747.9 135,713.2 
		100,693 100,808.5 100,808.5 200,750.8 200,750.7 300,808.5 300,768.1 	"/>
	<polygon class="st1" points="330,750.7 300,733.4 300,768.1 	"/>
	<polygon class="st3" points="200,750.8 200,808.5 300,808.5 200,750.7 	"/>
	<polygon class="st1" points="235,690.1 265,672.8 265,672.8 265,672.8 235,655.5 	"/>
	<polygon class="st3" points="400,750.8 300,808.5 400,808.5 400,750.7 	"/>
	<polygon class="st2" points="100,577.5 100,537.1 70,519.7 100,502.4 100,462 100,462 0,519.7 0,519.7 	"/>
	<polygon class="st1" points="100,462 100,502.4 70,519.7 100,537.1 100,502.4 130,519.7 100,537.1 100,577.5 100,577.5 200,519.7 	
		"/>
	<polygon class="st3" points="165,424.5 165,459.1 135,441.8 135,441.8 135,441.8 100,462 200,519.7 200,404.2 	"/>
	<polygon class="st1" points="135,441.8 165,459.1 165,424.5 165,424.5 165,424.5 	"/>
	<polygon class="st3" points="165,615 165,580.4 135,597.7 	"/>
	<polygon class="st3" points="100,462 65,441.8 35,459.1 35,424.5 0,404.2 0,404.3 0,404.3 0,519.7 0,519.7 	"/>
	<polygon class="st1" points="100,346.5 0,404.2 35,424.5 65,407.1 65,441.8 100,462 100,462 100,462 	"/>
	<polygon class="st1" points="35,459.1 65,441.8 35,424.5 	"/>
	<polygon class="st1" points="0,329.2 0,329.2 0,363.8 30,346.5 	"/>
	<polygon class="st2" points="135,441.8 135,407.1 165,424.5 165,424.5 200,404.2 100,346.5 100,462 	"/>
	<rect x="0" y="404.2" class="st1" width="0" height="0"/>
	<polygon class="st2" points="0,519.8 0,519.8 0,519.8 	"/>
	<polygon class="st1" points="0,635.2 0,635.3 0,635.3 	"/>
	<polygon class="st3" points="0,675.7 0,675.7 0,710.3 0,710.3 	"/>
	<polygon class="st1" points="100,577.5 65,597.7 65,632.4 35,615 0,635.3 100,693 100,577.5 	"/>
	<polygon class="st1" points="35,580.4 35,615 65,597.7 	"/>
	<polygon class="st2" points="100,577.5 100,693 200,635.2 	"/>
	<polygon class="st2" points="135,597.7 165,615 135,632.4 	"/>
	<polygon class="st1" points="135,597.7 135,632.4 165,615 	"/>
	<polygon class="st3" points="0,635.3 0,675.7 30,693 0,710.3 0,750.7 100,693 	"/>
	<polygon class="st1" points="0,710.3 30,693 0,675.7 0,675.7 	"/>
	<polygon class="st2" points="100,75.1 70,57.7 100,40.4 100,0 100,0 0,57.7 100,115.5 	"/>
	<polygon class="st1" points="100,0 100,40.4 70,57.7 100,75.1 100,40.4 130,57.7 100,75.1 100,115.5 100,115.5 200,57.7 	"/>
	<polygon class="st3" points="135,135.7 165,153 165,118.4 	"/>
	<polygon class="st1" points="100,231 100,115.5 65,135.7 65,170.4 35,153 0,173.2 0,173.3 100,231 	"/>
	<polygon class="st1" points="35,153 65,135.7 35,118.4 	"/>
	<polygon class="st1" points="135,135.7 135,170.4 165,153 	"/>
	<polygon class="st3" points="0,173.3 0,213.7 30,231 0,248.3 0,288.7 100,231 	"/>
	<polygon class="st3" points="0,288.7 0,288.7 0,288.7 	"/>
	<polygon class="st1" points="0,213.7 0,213.7 0,248.3 30,231 	"/>
	<polygon class="st3" points="370,0 400,17.3 400,-17.3 	"/>
	<polygon class="st2" points="100,346.5 100,306.1 100,306.1 70,288.7 100,271.4 100,231 200,173.2 100,115.5 100,115.5 100,231 
		100,231 0,288.7 0,288.7 	"/>
	<polygon class="st2" points="135,135.7 165,153 135,170.4 	"/>
	<polygon class="st1" points="100,231 100,271.4 130,288.7 100,306.1 100,346.5 100,346.5 200,288.7 	"/>
	<polygon class="st1" points="70,288.7 100,306.1 100,271.4 	"/>
	<polygon class="st3" points="200,173.2 100,231 200,288.7 	"/>
	<polygon class="st1" points="300,0 265,20.2 265,54.9 235,37.5 200,57.7 300,115.5 	"/>
	<polygon class="st1" points="265,20.2 235,2.9 235,37.5 265,20.2 	"/>
	<polygon class="st3" points="300,115.5 200,57.7 200,173.2 300,115.5 300,115.5 	"/>
	<polygon class="st2" points="400,57.8 400,57.7 400,57.7 300,0 300,115.5 	"/>
	<polygon class="st1" points="0,791.2 0,808.5 30,808.5 0,791.2 	"/>
	<rect x="0" y="791.2" class="st2" width="0" height="17.3"/>
	<polygon class="st3" points="100,693 100,693 100,693 135,713.2 165,695.9 165,730.5 200,750.7 200,635.2 	"/>
	<polygon class="st1" points="135,713.2 165,730.5 165,695.9 	"/>
	<polygon class="st2" points="100,693 0,750.7 100,808.5 100,808.5 100,693 	"/>
	<polygon class="st3" points="300,577.5 265,557.3 235,574.6 235,540 200,519.8 200,519.7 200,519.8 200,519.7 200,635.2 300,577.5 
		300,577.5 	"/>
	<polygon class="st1" points="235,540 265,522.6 265,557.3 300,577.5 300,577.5 300,462 200,519.8 	"/>
	<polygon class="st1" points="235,574.6 265,557.3 235,540 	"/>
	<polygon class="st0" points="1500,693 1500,693 1465,713.2 	"/>
	<polygon class="st0" points="1300,693 1300,693 1200,750.7 1200,750.7 1200,750.8 1200,750.7 1200,750.7 1300,808.5 1200,750.7 	
		"/>
	<polygon class="st0" points="1200,57.7 1300,0 1300,0 1200,57.7 	"/>
	<polygon class="st0" points="1500,346.5 1400,288.7 1500,346.5 	"/>
	<polygon class="st0" points="1300,231 1400,288.7 1300,231 	"/>
	<polygon class="st0" points="1300,231 1300,115.5 1300,231 	"/>
	<polygon class="st0" points="1500,462 1500,462 1400,519.7 	"/>
	<polygon class="st0" points="1500,693 1500,693 1500,808.5 	"/>
	<polygon class="st0" points="1300,462 1300,346.5 1300,346.5 	"/>
	<polygon class="st0" points="1235,384 1235,384 1200,404.2 1200,404.2 	"/>
	<polygon class="st0" points="1535,441.8 1500,462 1535,441.8 	"/>
	<polygon class="st0" points="1400,404.2 1400,519.7 1300,462 1400,519.7 	"/>
	<rect x="1400" y="519.7" class="st0" width="0" height="115.5"/>
	<polygon class="st0" points="1200,635.3 1200,750.7 1200,635.2 	"/>
	<polygon class="st0" points="1235,193.5 1200,173.2 1300,115.5 1200,173.2 	"/>
	<polygon class="st0" points="1200,288.7 1200,288.8 1200,288.7 1200,288.7 1200,288.7 1300,231 1300,231 1200,288.7 	"/>
	<polygon class="st0" points="1400,173.2 1400,288.7 1400,173.2 	"/>
	<polygon class="st0" points="1500,808.5 1500,808.5 1500,808.5 	"/>
	<polygon class="st2" points="1200,288.7 1200,288.7 1300,346.5 1300,306.1 1270,288.7 1300,271.4 1300,231 1300,231 1300,231 	"/>
	<polygon class="st1" points="1300,271.4 1270,288.7 1300,306.1 1300,271.4 1330,288.7 1300,306.1 1300,346.5 1300,346.5 
		1400,288.7 1300,231 	"/>
	<polygon class="st3" points="1400,173.2 1400,173.2 1365,193.5 1365,228.1 1335,210.8 1335,210.8 1300,231 1400,288.7 1400,173.2 	
		"/>
	<polygon class="st1" points="1335,210.8 1365,228.1 1365,193.5 1365,193.5 	"/>
	<polygon class="st3" points="1365,384 1365,349.4 1335,366.7 	"/>
	<polygon class="st3" points="1200,173.2 1200,288.7 1300,231 1265,210.8 1235,228.1 1235,193.5 1200,173.2 	"/>
	<polygon class="st1" points="1200,173.2 1235,193.5 1265,176.1 1265,210.8 1300,231 1300,231 1300,115.5 1300,115.5 	"/>
	<polygon class="st1" points="1265,210.8 1235,193.5 1235,228.1 	"/>
	<polygon class="st1" points="1200,132.8 1230,115.5 1200,98.2 1200,98.2 	"/>
	<polygon class="st2" points="1335,210.8 1335,176.1 1365,193.5 1365,193.5 1400,173.2 1300,115.5 1300,231 	"/>
	<polygon class="st1" points="1300,346.5 1265,366.7 1265,401.4 1235,384 1200,404.2 1300,462 1300,462 1300,346.5 	"/>
	<polygon class="st1" points="1265,366.7 1235,349.4 1235,384 1235,384 	"/>
	<polygon class="st2" points="1400,404.2 1400,404.2 1335,366.7 1300,346.5 1300,462 	"/>
	<polygon class="st2" points="1335,401.4 1335,366.7 1365,384 	"/>
	<polygon class="st1" points="1335,401.4 1365,384 1335,366.7 	"/>
	<polygon class="st3" points="1200,444.7 1230,462 1200,479.3 1200,519.7 1300,462 1200,404.2 	"/>
	<polygon class="st1" points="1200,479.3 1230,462 1200,444.7 1200,444.7 	"/>
	<polygon class="st1" points="1565,459.1 1565,424.5 1535,441.8 	"/>
	<polygon class="st2" points="1400,404.2 1435,424.5 1465,407.1 1465,441.8 1500,462 1500,462 1500,346.5 1500,346.5 1500,346.5 	
		"/>
	<polygon class="st3" points="1600,404.2 1600,363.8 1570,346.5 1600,329.2 1600,329.2 1600,288.7 1500,346.5 	"/>
	<polygon class="st2" points="1600,363.8 1600,329.2 1570,346.5 	"/>
	<polygon class="st2" points="1500,502.4 1500,502.4 1530,519.7 1500,537.1 1500,577.5 1500,577.5 1600,519.7 1600,519.7 
		1600,519.7 1500,462 	"/>
	<polygon class="st1" points="1500,577.5 1500,537.1 1470,519.7 1500,502.4 1500,462 1500,462 1500,462 1400,519.7 	"/>
	<polygon class="st1" points="1530,519.7 1500,502.4 1500,537.1 	"/>
	<polygon class="st3" points="1400,635.2 1435,615 1435,580.4 1465,597.7 1500,577.5 1400,519.7 	"/>
	<polygon class="st1" points="1465,441.8 1435,424.5 1435,459.1 	"/>
	<polygon class="st3" points="1535,597.7 1565,580.4 1565,615 1600,635.2 1600,519.7 1500,577.5 	"/>
	<polygon class="st1" points="1565,580.4 1535,597.7 1500,577.5 1500,577.5 1500,577.5 1500,693 1600,635.2 1600,635.2 1565,615 	
		"/>
	<polygon class="st1" points="1535,632.4 1535,597.7 1565,615 	"/>
	<polygon class="st3" points="1600,710.3 1600,675.7 1570,693 	"/>
	<polygon class="st2" points="1465,632.4 1435,615 1400,635.2 1500,693 1500,577.5 1500,577.5 1465,597.7 	"/>
	<polygon class="st1" points="1465,597.7 1435,615 1465,632.4 	"/>
	<polygon class="st2" points="1270,750.7 1300,733.4 1300,693 1300,693 1300,693 1200,750.7 1300,808.5 1300,768.1 	"/>
	<polygon class="st1" points="1300,733.4 1330,750.7 1300,768.1 1300,808.5 1300,808.5 1400,750.7 1300,693 	"/>
	<polygon class="st1" points="1300,768.1 1300,733.4 1270,750.7 	"/>
	<polygon class="st3" points="1365,655.5 1365,690.1 1335,672.8 1335,672.8 1335,672.8 1300,693 1300,693 1400,750.7 1400,635.2 	
		"/>
	<polygon class="st1" points="1335,672.8 1365,690.1 1365,655.5 1365,655.5 	"/>
	<polygon class="st3" points="1235,690.1 1235,655.5 1200,635.2 1200,635.2 1200,750.7 1300,693 1265,672.8 	"/>
	<polygon class="st1" points="1300,577.5 1300,577.5 1300,577.5 1200,635.2 1235,655.5 1265,638.1 1265,672.8 1300,693 1300,693 
		1300,693 1300,577.5 	"/>
	<polygon class="st1" points="1265,672.8 1235,655.5 1235,690.1 	"/>
	<polygon class="st1" points="1200,560.2 1200,560.2 1200,594.8 1230,577.5 	"/>
	<polygon class="st2" points="1400,635.2 1300,577.5 1300,693 1335,672.8 1335,638.1 1365,655.5 1365,655.5 1400,635.2 1400,635.2 	
		"/>
	<polygon class="st1" points="1300,808.5 1300,808.5 1300,808.5 	"/>
	<rect x="1300" y="808.5" class="st2" width="0" height="0"/>
	<polygon class="st2" points="1600,57.7 1600,57.7 1600,57.7 	"/>
	<polygon class="st2" points="1500,0 1500,40.4 1530,57.7 1500,75.1 1500,115.5 1500,115.5 1600,57.7 1600,57.7 	"/>
	<polygon class="st1" points="1530,57.7 1500,40.4 1500,75.1 	"/>
	<polygon class="st3" points="1400,57.7 1400,173.2 1435,153 1435,118.4 1465,135.7 1500,115.5 1400,57.7 	"/>
	<polygon class="st3" points="1535,135.7 1565,118.4 1565,153 1600,173.2 1600,173.2 1600,57.7 1500,115.5 	"/>
	<polygon class="st1" points="1600,173.2 1565,153 1535,170.4 1535,135.7 1500,115.5 1500,115.5 1500,231 	"/>
	<polygon class="st1" points="1565,118.4 1535,135.7 1565,153 	"/>
	<polygon class="st3" points="1600,248.3 1600,213.7 1570,231 	"/>
	<polygon class="st2" points="1435,153 1400,173.2 1400,173.2 1400,173.2 1500,231 1500,115.5 1465,135.7 	"/>
	<polygon class="st2" points="1465,170.4 1435,153 1465,135.7 	"/>
	<polygon class="st1" points="1465,170.4 1465,135.7 1435,153 	"/>
	<polygon class="st1" points="1600,173.2 1600,173.2 1600,173.2 	"/>
	<polygon class="st1" points="1200,-17.3 1200,-17.3 1200,17.3 1230,0 	"/>
	<polygon class="st2" points="1500,231 1500,271.4 1530,288.7 1500,306.1 1500,306.1 1500,346.5 1600,288.7 1500,231 	"/>
	<polygon class="st1" points="1470,288.7 1500,271.4 1500,231 1400,288.7 1500,346.5 1500,346.5 1500,462 1535,441.8 1535,407.1 
		1565,424.5 1600,404.2 1600,404.2 1600,404.2 1500,346.5 1500,306.1 	"/>
	<polygon class="st1" points="1530,288.7 1500,271.4 1500,306.1 	"/>
	<polygon class="st3" points="1400,404.2 1300,462 1300,462 1300,462 1400,519.7 1400,404.2 1500,346.5 1400,288.7 1400,404.2 	"/>
	<polygon class="st1" points="1400,57.7 1365,37.5 1335,54.9 1335,20.2 1335,20.2 1365,37.5 1365,2.9 1335,20.2 1300,0 1300,115.5 
		1300,115.5 1300,115.5 1400,57.7 1400,57.7 1500,115.5 1500,75.1 1470,57.7 1500,40.4 1500,0 1500,0 1500,0 1400,57.7 	"/>
	<polygon class="st2" points="1200,57.7 1300,115.5 1300,115.5 1300,115.5 1300,0 1300,0 	"/>
	<polygon class="st1" points="1465,747.9 1435,730.5 1400,750.7 1500,808.5 1500,808.5 1500,693 1500,693 1465,713.2 	"/>
	<polygon class="st1" points="1435,695.9 1435,730.5 1465,713.2 	"/>
	<polygon class="st3" points="1500,808.5 1400,750.7 1400,750.7 1400,750.7 1400,808.5 1500,808.5 1500,808.5 1500,808.5 	"/>
	<polygon class="st2" points="1500,693 1500,808.5 1600,750.7 1600,750.7 1500,693 	"/>
	<rect x="1500" y="808.5" class="st1" width="0" height="0"/>
	<polygon class="st3" points="1500,808.5 1500,808.5 1570,808.5 1570,808.5 1600,791.2 1600,750.7 1500,808.5 	"/>
	<polygon class="st2" points="1570,808.5 1600,808.5 1600,791.2 1570,808.5 	"/>
	<polygon class="st1" points="1300,577.5 1335,557.3 1335,522.6 1365,540 1400,519.7 1400,519.7 1300,462 1300,462 1300,462 	"/>
	<polygon class="st1" points="1365,540 1335,557.3 1365,574.6 	"/>
</g>
<g id="Layer_2">
	<g>
		<g>
			<polygon class="st6" points="851,343.7 851,363.2 867.8,353.4 			"/>
			<polygon class="st6" points="749,363.2 749,343.7 732.2,353.4 			"/>
			<polygon class="st6" points="817.2,304.8 834,314.5 834,295.1 			"/>
			<polygon class="st6" points="782.8,402.1 766,392.4 766,411.8 			"/>
			<polygon class="st6" points="766,314.5 782.8,304.8 766,295.1 			"/>
			<polygon class="st6" points="834,392.4 817.2,402.1 834,411.8 			"/>
			<g>
				<polygon class="st1" points="699.3,411.7 699.3,411.8 699.3,411.8 				"/>
				<polygon class="st1" points="717.3,303.8 732,295 732,312.5 749,322.2 749,265.8 700.3,294 				"/>
				<polygon class="st1" points="731.3,315.5 716,324.3 716,306.7 699,297 699,353.4 748,325.2 				"/>
				<polygon class="st1" points="716,400.1 716,382.6 731.2,391.3 747.9,381.6 699,353.4 699,409.8 				"/>
				<polygon class="st1" points="869.2,391.3 884,382.6 884,400.1 901,409.8 901,353.4 852.3,381.6 				"/>
				<polygon class="st1" points="884,324.3 869.1,315.5 852.2,325.2 901,353.4 901,297 884,306.7 				"/>
				<polygon class="st1" points="901.4,411.7 901.4,411.8 901.4,411.8 				"/>
				<polygon class="st1" points="699.3,411.9 699.4,411.9 699.3,411.8 				"/>
				<polygon class="st1" points="749,384.5 732,394.2 732,411.9 717.2,403.1 700.2,412.8 749,441.1 749,440.9 797,469.1 797,449.7 
					781.8,440.9 797,432.2 797,412.7 749,440.9 				"/>
				<polygon class="st1" points="899.9,412.8 883.2,403.1 868,411.9 868,394.2 851,384.5 851,440.9 803,412.7 803,432.2 
					818.2,440.9 803,449.7 803,469.1 851,440.9 851,441.1 				"/>
				<polygon class="st1" points="901.3,411.9 901.4,411.9 901.4,411.8 				"/>
				<polygon class="st1" points="851,322.2 868,312.5 868,295 883,303.8 899.9,294 851,265.8 				"/>
				<polygon class="st1" points="803,237.6 803,257.1 818.2,265.8 803,274.6 803,294 851.9,265.8 				"/>
				<polygon class="st1" points="797,274.6 781.8,265.8 797,257.1 797,237.6 748.1,265.8 797,294 				"/>
			</g>
			<g>
				<polygon class="st1" points="797,296 783,304.8 783,324.3 766.4,314.5 750.6,323.3 797,350.5 				"/>
				<polygon class="st1" points="803,296 803,350.5 849.6,323.3 834.2,314.5 817,324.3 817,304.8 				"/>
				<polygon class="st1" points="749,326.1 749,343.7 765.8,353.4 749,363.2 749,380.6 796.2,353.4 				"/>
				<polygon class="st1" points="851,326.1 803.8,353.4 851,380.6 851,363.2 834.2,353.4 851,343.7 				"/>
				<polygon class="st1" points="803,410.8 817,402.1 817,382.6 833.9,392.4 849.7,383.6 803,356.3 				"/>
				<polygon class="st1" points="797,410.8 797,356.3 750.6,383.6 766,392.4 783,382.6 783,402.1 				"/>
			</g>
		</g>
		<g>
			<path class="st1" d="M617.3,518.8c0,7.6-11.6,7.6-11.6,0C605.7,511.2,617.3,511.2,617.3,518.8z M606.6,529.8v39.8h9.8v-39.8
				H606.6z"/>
			<path class="st1" d="M656.9,540.3c-2.8-2.7-6-3.5-9.8-3.5c-4.7,0-7.2,1.4-7.2,3.9c0,2.6,2.3,4,7.4,4.3c7.5,0.5,17,2.2,17,12.7
				c0,7-5.7,13-17.1,13c-6.3,0-12.6-1-18.3-7.1l4.8-7c2.8,3.1,9.3,5.5,13.7,5.6c3.7,0.1,7.2-1.9,7.2-4.7c0-2.7-2.3-3.9-7.9-4.2
				c-7.5-0.6-16.4-3.3-16.4-12.3c0-9.2,9.5-12.4,16.7-12.4c6.2,0,10.9,1.2,15.4,5.2L656.9,540.3z"/>
			<path class="st1" d="M685.9,518.8c0,7.6-11.6,7.6-11.6,0C674.3,511.2,685.9,511.2,685.9,518.8z M675.2,529.8v39.8h9.8v-39.8
				H675.2z"/>
			<path class="st1" d="M736.6,550c0,11.4-7.8,20.7-20.7,20.7c-12.9,0-20.6-9.3-20.6-20.7c0-11.3,7.9-20.7,20.5-20.7
				S736.6,538.6,736.6,550z M705.1,550c0,6,3.6,11.7,10.8,11.7s10.8-5.6,10.8-11.7c0-6-4.2-11.7-10.8-11.7
				C708.8,538.2,705.1,544,705.1,550z"/>
			<path class="st1" d="M775.6,569.7v-20.8c0-6-3.3-10.6-9.6-10.6c-6,0-10.1,5.1-10.1,11.1v20.3h-9.7v-39.7h8.8l0.6,5.4
				c4-3.9,8-6,13-6c9.3,0,16.8,7,16.8,19.5v20.8H775.6z"/>
			<path class="st6" d="M832.2,564.6c-4.6,4.5-9.4,6.3-15.3,6.3c-11.5,0-21.1-6.9-21.1-21c0-14.1,9.6-21,21.1-21
				c5.6,0,10,1.6,14.3,5.9l-6.2,6.5c-2.3-2.1-5.2-3.1-8-3.1c-6.6,0-11.4,4.8-11.4,11.7c0,7.6,5.1,11.6,11.3,11.6
				c3.1,0,6.3-0.9,8.7-3.3L832.2,564.6z"/>
			<path class="st1" d="M879,550.2c0,11.4-7.8,20.7-20.7,20.7c-12.9,0-20.6-9.3-20.6-20.7c0-11.3,7.9-20.7,20.5-20.7
				C870.9,529.5,879,538.9,879,550.2z M847.6,550.2c0,6,3.6,11.7,10.8,11.7c7.2,0,10.8-5.6,10.8-11.7c0-6-4.2-11.7-10.8-11.7
				C851.3,538.5,847.6,544.3,847.6,550.2z"/>
			<path class="st1" d="M897.3,530l0.7,4.6c3.1-4.9,7.2-5.6,11.2-5.6c4.1,0,8,1.6,10.2,3.8l-4.4,8.5c-2-1.7-3.9-2.6-7.1-2.6
				c-5.1,0-9.9,2.7-9.9,10.1v20.9h-9.8V530H897.3z"/>
			<path class="st1" d="M941.9,514.6v15.4h10.9v8.4h-11v17.1c0,3.8,2.1,5.6,5.1,5.6c1.5,0,3.3-0.5,4.7-1.2l2.7,8.4
				c-2.8,1.1-5.1,1.6-8.1,1.7c-8.6,0.3-14.2-4.6-14.2-14.5v-17.1h-7.4v-8.4h7.4v-10.2L941.9,514.6z"/>
			<path class="st1" d="M970.9,553.4c0.6,4.9,4.9,8.4,11.8,8.4c3.6,0,8.4-1.4,10.6-3.7l6.3,6.2c-4.2,4.3-11,6.4-17.1,6.4
				c-13.7,0-21.8-8.4-21.8-21.2c0-12.1,8.2-20.8,21.1-20.8c13.3,0,21.6,8.2,20,24.5H970.9z M992.5,545.3c-0.6-5.1-4.7-7.7-10.3-7.7
				c-5.3,0-9.7,2.6-11.1,7.7H992.5z"/>
			<path class="st1" d="M1034.4,530h11.7v0.3l-13,19.2l13.8,19.9v0.2h-11.7l-8.6-13.3l-8.6,13.3h-11.7v-0.2l13.8-19.9l-13-19.2V530
				h11.7l7.8,13.4L1034.4,530z"/>
			<path class="st6" d="M597.5,529.6L576,569.9h-0.5L553,529.6h12.3l10.8,19.2l9.8-19.2H597.5z"/>
		</g>
	</g>
</g>
</svg>
