<?xml version="1.0" encoding="utf-8"?>
<!-- Generator: Adobe Illustrator 21.0.0, SVG Export Plug-In . SVG Version: 6.00 Build 0)  -->
<svg version="1.1" id="Layer_1" xmlns="http://www.w3.org/2000/svg" xmlns:xlink="http://www.w3.org/1999/xlink" x="0px" y="0px"
	 viewBox="0 0 520 520" style="enable-background:new 0 0 520 520;" xml:space="preserve">
<style type="text/css">
	.st0{fill:#CC972E;}
	.st1{fill:#0088F7;}
</style>
<g>
	<g>
		<polygon class="st0" points="311,199.4 311,218.9 327.8,209.1 		"/>
		<polygon class="st0" points="209,218.9 209,199.4 192.3,209.1 		"/>
		<polygon class="st0" points="277.3,160.4 294,170.2 294,150.8 		"/>
		<polygon class="st0" points="242.8,257.8 226,248.1 226,267.5 		"/>
		<polygon class="st0" points="226,170.2 242.8,160.4 226,150.8 		"/>
		<polygon class="st0" points="294,248.1 277.3,257.8 294,267.5 		"/>
		<g>
			<polygon class="st1" points="177.3,159.4 192,150.7 192,168.2 209,177.9 209,121.4 160.3,149.7 			"/>
			<polygon class="st1" points="191.3,171.2 176,179.9 176,162.4 159,152.7 159,209.1 208,180.9 			"/>
			<polygon class="st1" points="176,255.8 176,238.3 191.3,246.9 207.9,237.3 159,209.1 159,265.5 			"/>
			<polygon class="st1" points="329.3,246.9 344,238.3 344,255.8 361,265.5 361,209.1 312.3,237.3 			"/>
			<polygon class="st1" points="344,179.9 329.1,171.2 312.3,180.9 361,209.1 361,152.7 344,162.4 			"/>
			<polygon class="st1" points="159.3,267.5 159.4,267.5 159.3,267.5 			"/>
			<polygon class="st1" points="209,240.2 192,249.9 192,267.5 177.3,258.8 160.3,268.5 209,296.8 209,296.5 257,324.8 257,305.5 
				241.8,296.5 257,288 257,268.5 209,296.5 			"/>
			<polygon class="st1" points="359.9,268.5 343.3,258.8 328,267.5 328,249.9 311,240.2 311,296.5 263,268.5 263,288 278.3,296.5 
				263,305.5 263,324.8 311,296.5 311,296.8 			"/>
			<polygon class="st1" points="361.3,267.5 361.4,267.5 361.4,267.5 			"/>
			<polygon class="st1" points="311,177.9 328,168.2 328,150.7 343,159.4 359.9,149.7 311,121.4 			"/>
			<polygon class="st1" points="263,93.3 263,112.8 278.3,121.4 263,130.3 263,149.7 311.9,121.4 			"/>
			<polygon class="st1" points="257,130.3 241.8,121.4 257,112.8 257,93.3 208.1,121.4 257,149.7 			"/>
		</g>
		<g>
			<polygon class="st1" points="257,151.7 243,160.4 243,179.9 226.4,170.2 210.6,178.9 257,206.2 			"/>
			<polygon class="st1" points="263,151.7 263,206.2 309.6,178.9 294.3,170.2 277,179.9 277,160.4 			"/>
			<polygon class="st1" points="209,181.8 209,199.4 225.8,209.1 209,218.9 209,236.3 256.3,209.1 			"/>
			<polygon class="st1" points="311,181.8 263.8,209.1 311,236.3 311,218.9 294.3,209.1 311,199.4 			"/>
			<polygon class="st1" points="263,266.5 277,257.8 277,238.3 293.9,248.1 309.8,239.3 263,211.9 			"/>
			<polygon class="st1" points="257,266.5 257,211.9 210.6,239.3 226,248.1 243,238.3 243,257.8 			"/>
		</g>
	</g>
	<g>
		<path class="st1" d="M77.3,374.5c0,7.6-11.6,7.6-11.6,0S77.3,367,77.3,374.5z M66.6,385.5v39.8h9.8v-39.8H66.6z"/>
		<path class="st1" d="M116.9,396c-2.8-2.7-6-3.5-9.8-3.5c-4.7,0-7.2,1.4-7.2,3.9c0,2.6,2.3,4,7.4,4.3c7.5,0.5,17,2.2,17,12.7
			c0,7-5.7,13-17.1,13c-6.3,0-12.6-1-18.3-7.1l4.8-7c2.8,3.1,9.3,5.5,13.7,5.6c3.7,0.1,7.2-1.9,7.2-4.7c0-2.7-2.3-3.9-7.9-4.2
			c-7.5-0.6-16.4-3.3-16.4-12.3c0-9.2,9.5-12.4,16.7-12.4c6.2,0,10.9,1.2,15.4,5.2L116.9,396z"/>
		<path class="st1" d="M145.9,374.5c0,7.6-11.6,7.6-11.6,0C134.3,367,145.9,367,145.9,374.5z M135.3,385.5v39.8h9.8v-39.8H135.3z"/>
		<path class="st1" d="M196.6,405.8c0,11.4-7.8,20.7-20.7,20.7s-20.6-9.3-20.6-20.7c0-11.3,7.9-20.7,20.5-20.7
			S196.6,394.3,196.6,405.8z M165.1,405.8c0,6,3.6,11.7,10.8,11.7s10.8-5.6,10.8-11.7c0-6-4.2-11.7-10.8-11.7
			C168.8,394,165.1,399.8,165.1,405.8z"/>
		<path class="st1" d="M235.6,425.5v-20.8c0-6-3.3-10.6-9.6-10.6c-6,0-10.1,5.1-10.1,11.1v20.3h-9.7v-39.7h8.8l0.6,5.4
			c4-3.9,8-6,13-6c9.3,0,16.8,7,16.8,19.5v20.8H235.6z"/>
		<path class="st0" d="M292.3,420.3c-4.6,4.5-9.4,6.3-15.3,6.3c-11.5,0-21.1-6.9-21.1-21s9.6-21,21.1-21c5.6,0,10,1.6,14.3,5.9
			L285,397c-2.3-2.1-5.2-3.1-8-3.1c-6.6,0-11.4,4.8-11.4,11.7c0,7.6,5.1,11.6,11.3,11.6c3.1,0,6.3-0.9,8.7-3.3L292.3,420.3z"/>
		<path class="st1" d="M339,406c0,11.4-7.8,20.7-20.7,20.7s-20.6-9.3-20.6-20.7c0-11.3,7.9-20.7,20.5-20.7
			C330.9,385.3,339,394.7,339,406z M307.6,406c0,6,3.6,11.7,10.8,11.7s10.8-5.6,10.8-11.7c0-6-4.2-11.7-10.8-11.7
			C311.3,394.3,307.6,400,307.6,406z"/>
		<path class="st1" d="M357.3,385.8l0.7,4.6c3.1-4.9,7.2-5.6,11.2-5.6c4.1,0,8,1.6,10.2,3.8L375,397c-2-1.7-3.9-2.6-7.1-2.6
			c-5.1,0-9.9,2.7-9.9,10.1v20.9h-9.8v-39.7L357.3,385.8L357.3,385.8z"/>
		<path class="st1" d="M402,370.3v15.4h10.9v8.4h-11v17.1c0,3.8,2.1,5.6,5.1,5.6c1.5,0,3.3-0.5,4.7-1.2l2.7,8.4
			c-2.8,1.1-5.1,1.6-8.1,1.7c-8.6,0.3-14.2-4.6-14.2-14.5v-17.1h-7.4v-8.4h7.4v-10.2L402,370.3z"/>
		<path class="st1" d="M431,409.2c0.6,4.9,4.9,8.4,11.8,8.4c3.6,0,8.4-1.4,10.6-3.7l6.3,6.2c-4.2,4.3-11,6.4-17.1,6.4
			c-13.7,0-21.8-8.4-21.8-21.2c0-12.1,8.2-20.8,21.1-20.8c13.3,0,21.6,8.2,20,24.5h-30.9L431,409.2L431,409.2z M452.5,401
			c-0.6-5.1-4.7-7.7-10.3-7.7c-5.3,0-9.7,2.6-11.1,7.7H452.5z"/>
		<path class="st1" d="M494.5,385.8h11.7v0.3l-13,19.2l13.8,19.9v0.2h-11.7l-8.6-13.3l-8.6,13.3h-11.7v-0.2l13.8-19.9l-13-19.2v-0.3
			h11.7l7.8,13.4L494.5,385.8z"/>
		<path class="st0" d="M57.5,385.3L36,425.7h-0.5L13,385.3h12.3l10.8,19.2l9.8-19.2H57.5z"/>
	</g>
</g>
</svg>
