<?xml version="1.0" encoding="utf-8"?>
<!-- Generator: Adobe Illustrator 21.0.0, SVG Export Plug-In . SVG Version: 6.00 Build 0)  -->
<svg version="1.1" id="Layer_1" xmlns="http://www.w3.org/2000/svg" xmlns:xlink="http://www.w3.org/1999/xlink" x="0px" y="0px"
	 viewBox="0 0 510 342" style="enable-background:new 0 0 510 342;" xml:space="preserve">
<style type="text/css">
	.st0{fill:#FFFFFF;}
	.st1{fill:none;stroke:#666666;stroke-width:5;stroke-miterlimit:10;}
</style>
<rect class="st0" width="510" height="342"/>
<g>
	<rect x="322" y="110.3" class="st1" width="163.4" height="210.7"/>
	<line class="st1" x1="486" y1="214.8" x2="322.6" y2="214.8"/>
	<line class="st1" x1="404.3" y1="320.2" x2="404.3" y2="109.5"/>
</g>
<g>
	<rect x="23" y="20.2" class="st1" width="199.2" height="300.8"/>
	<line class="st1" x1="223" y1="169.4" x2="23.8" y2="169.4"/>
	<line class="st1" x1="123.4" y1="319.8" x2="123.4" y2="19"/>
</g>
<g>
	<path d="M31.9,310.3c0.8-13,1.6-32.4,1.6-49.4v-231h34.4V150h0.8c12.2-21.3,34.4-35.1,65.2-35.1c47.4,0,81,39.5,80.6,97.5
		c0,68.3-43,102.3-85.7,102.3c-27.6,0-49.8-10.7-64-35.9h-1.2L62,310.4H31.9V310.3z M67.8,233.7c0,4.3,0.8,8.7,1.6,12.6
		c6.7,24.1,26.9,40.7,52.1,40.7c36.3,0,58.1-29.6,58.1-73.5c0-38.3-19.7-71.1-56.9-71.1c-23.7,0-45.8,16.2-52.9,42.7
		c-0.8,4-2,8.7-2,14.2V233.7z"/>
	<path d="M478.1,303.2c-9.1,4.7-29.2,11.1-54.9,11.1c-57.7,0-95.2-39.1-95.2-97.5c0-58.8,40.3-101.5,102.7-101.5
		c20.5,0,38.7,5.1,48.2,9.9L471,152c-8.3-4.7-21.3-9.1-40.3-9.1c-43.8,0-67.5,32.4-67.5,72.3c0,44.2,28.4,71.5,66.3,71.5
		c19.7,0,32.8-5.1,42.7-9.5L478.1,303.2z"/>
</g>
</svg>
