<?xml version="1.0" encoding="utf-8"?>
<!-- Generator: Adobe Illustrator 21.0.0, SVG Export Plug-In . SVG Version: 6.00 Build 0)  -->
<svg version="1.1" id="Layer_1" xmlns="http://www.w3.org/2000/svg" xmlns:xlink="http://www.w3.org/1999/xlink" x="0px" y="0px"
	 viewBox="0 0 526 526" style="enable-background:new 0 0 526 526;" xml:space="preserve">
<style type="text/css">
	.st0{fill:none;stroke:#666666;stroke-width:5;stroke-miterlimit:10;}
</style>
<g>
	<rect x="48.1" y="49.7" class="st0" width="428.2" height="428.2"/>
	<line class="st0" x1="477.9" y1="262.2" x2="49.7" y2="262.2"/>
	<line class="st0" x1="263.8" y1="476.3" x2="263.8" y2="48.1"/>
</g>
<path d="M170.1,212.6l-1.3-11.4h-0.6c-5.1,7.1-14.8,13.5-27.7,13.5c-18.4,0-27.7-12.9-27.7-26c0-21.9,19.5-33.9,54.5-33.7V153
	c0-7.5-2.1-21-20.6-21c-8.4,0-17.2,2.6-23.6,6.7l-3.7-10.9c7.5-4.9,18.4-8.1,29.8-8.1c27.7,0,34.5,18.9,34.5,37.1v33.9
	c0,7.9,0.4,15.5,1.5,21.7H170.1z M167.7,166.3c-18-0.4-38.4,2.8-38.4,20.4c0,10.7,7.1,15.7,15.5,15.7c11.8,0,19.3-7.5,21.9-15.2
	c0.6-1.7,0.9-3.6,0.9-5.2V166.3z"/>
<path d="M333.8,221.8c0.4-6.2,0.7-15.4,0.7-23.4V88.9h16.3v56.9h0.4c5.8-10.1,16.3-16.7,30.9-16.7c22.5,0,38.4,18.7,38.2,46.3
	c0,32.4-20.4,48.5-40.6,48.5c-13.1,0-23.6-5.1-30.3-17h-0.6l-0.7,15H333.8z M350.8,185.5c0,2.1,0.4,4.1,0.7,6
	c3.2,11.4,12.7,19.3,24.7,19.3c17.2,0,27.5-14,27.5-34.8c0-18.2-9.4-33.7-27-33.7c-11.2,0-21.7,7.7-25.1,20.2
	c-0.4,1.9-0.9,4.1-0.9,6.7V185.5z"/>
<path d="M184.5,435.5c-4.3,2.2-13.9,5.2-26,5.2c-27.3,0-45.1-18.5-45.1-46.3c0-27.9,19.1-48.1,48.7-48.1c9.7,0,18.4,2.4,22.8,4.7
	l-3.7,12.7c-3.9-2.2-10.1-4.3-19.1-4.3c-20.8,0-32,15.4-32,34.3c0,21,13.5,33.9,31.5,33.9c9.4,0,15.5-2.4,20.2-4.5L184.5,435.5z"/>
<path d="M406.4,305.9v109.6c0,8.1,0.2,17.2,0.7,23.4h-14.8l-0.7-15.7h-0.4c-5.1,10.1-16.1,17.8-30.9,17.8
	c-21.9,0-38.8-18.5-38.8-46.1c-0.2-30.2,18.5-48.7,40.6-48.7c13.9,0,23.2,6.6,27.3,13.9h0.4v-54.1H406.4z M389.9,385.1
	c0-2.1-0.2-4.9-0.7-6.9c-2.4-10.5-11.4-19.1-23.8-19.1c-17,0-27.2,15-27.2,35c0,18.4,9,33.5,26.8,33.5c11,0,21.2-7.3,24.2-19.7
	c0.6-2.2,0.7-4.5,0.7-7.1V385.1z"/>
</svg>
