<svg id="svg" version="1.1" width="1280" height="270" viewBox="480 780 960 270" xmlns="http://www.w3.org/2000/svg"><path d="M0,0 L5,0 L5,4 L0,4 L0,0 " transform="translate(1392,741)" style="fill: rgba(255,232,96,1);"/><path d="M0,0 L3,0 L3,1 L4,1 L4,6 L1,6 L1,5 L0,5 L0,0 " transform="translate(926,333)" style="fill: rgba(216,51,74,1);"/><path d="M1,0 L4,0 L4,1 L5,1 L5,5 L4,5 L4,6 L2,6 L2,5 L1,5 L1,4 L0,4 L0,1 L1,1 L1,0 " transform="translate(1452,1023)" style="fill: rgba(172,146,236,1);"/><path d="M0,0 L4,0 L4,2 L5,2 L5,6 L1,6 L1,5 L0,5 L0,0 " transform="translate(862,174)" style="fill: rgba(128,103,183,1);"/><path d="M0,0 L2,0 L2,1 L3,1 L3,2 L4,2 L4,4 L5,4 L5,9 L3,9 L3,8 L2,8 L2,6 L1,6 L1,4 L0,4 L0,0 " transform="translate(877,563)" style="fill: rgba(93,156,236,1);"/><path d="M0,0 L2,0 L2,1 L3,1 L3,10 L0,10 L0,0 " transform="translate(575,1010)" style="fill: rgba(79,193,233,1);"/><path d="M0,0 L2,0 L2,2 L3,2 L3,4 L4,4 L4,5 L5,5 L5,7 L6,7 L6,10 L4,10 L4,12 L3,12 L3,10 L2,10 L2,8 L1,8 L1,6 L0,6 L0,0 " transform="translate(738,760)" style="fill: rgba(72,207,173,1);"/><path d="M4,0 L6,0 L6,1 L7,1 L7,2 L8,2 L8,4 L7,4 L7,5 L6,5 L6,6 L5,6 L5,7 L2,7 L2,6 L1,6 L1,5 L0,5 L0,2 L2,2 L2,1 L4,1 L4,0 " transform="translate(841,935)" style="fill: rgba(160,212,104,1);"/><path d="M6,0 L8,0 L8,3 L7,3 L7,8 L3,8 L3,7 L0,7 L0,5 L1,5 L1,4 L2,4 L2,3 L3,3 L3,2 L4,2 L4,1 L6,1 L6,0 " transform="translate(762,883)" style="fill: rgba(255,232,96,1);"/><path d="M2,0 L7,0 L7,1 L8,1 L8,5 L7,5 L7,6 L1,6 L1,5 L0,5 L0,1 L2,1 L2,0 " transform="translate(1353,743)" style="fill: rgba(216,51,74,1);"/><path d="M0,0 L8,0 L8,1 L9,1 L9,2 L14,2 L14,4 L8,4 L8,6 L6,6 L6,4 L2,4 L2,2 L0,2 L0,0 " transform="translate(1330,768)" style="fill: rgba(172,146,236,1);"/><path d="M2,0 L5,0 L5,1 L6,1 L6,3 L7,3 L7,5 L0,5 L0,3 L1,3 L1,1 L2,1 L2,0 " transform="translate(343,857)" style="fill: rgba(128,103,183,1);"/><path d="M0,0 L4,0 L4,9 L2,9 L2,7 L1,7 L1,5 L0,5 L0,0 " transform="translate(334,859)" style="fill: rgba(128,103,183,1);"/><path d="M2,0 L6,0 L6,4 L7,4 L7,7 L3,7 L3,6 L2,6 L2,5 L0,5 L0,3 L1,3 L1,1 L2,1 L2,0 " transform="translate(409,838)" style="fill: rgba(128,103,183,1);"/><path d="M0,0 L9,0 L9,2 L8,2 L8,3 L7,3 L7,4 L6,4 L6,5 L4,5 L4,6 L3,6 L3,7 L0,7 L0,0 " transform="translate(366,849)" style="fill: rgba(128,103,183,1);"/><path d="M0,0 L6,0 L6,5 L4,5 L4,4 L0,4 L0,0 " transform="translate(379,1073)" style="fill: rgba(93,156,236,1);"/><path d="M4,0 L5,0 L5,3 L6,3 L6,7 L5,7 L5,10 L2,10 L2,6 L0,6 L0,5 L1,5 L1,4 L2,4 L2,3 L3,3 L3,1 L4,1 L4,0 " transform="translate(344,1033)" style="fill: rgba(93,156,236,1);"/><path d="M3,6 L6,6 L6,10 L8,10 L8,11 L7,11 L7,12 L6,12 L6,13 L5,13 L5,14 L3,14 L3,15 L0,15 L0,14 L1,14 L1,13 L2,13 L2,12 L3,12 L3,10 L1,10 L1,9 L3,9 L3,6 " transform="translate(340,1033)" style="fill: rgba(93,156,236,1);"/><path d="M0,0 L6,0 L6,2 L11,2 L11,3 L12,3 L12,6 L13,6 L13,7 L16,7 L16,12 L10,12 L10,11 L9,11 L9,8 L5,8 L5,5 L4,5 L4,4 L1,4 L1,3 L0,3 L0,0 " transform="translate(1523,770)" style="fill: rgba(79,193,233,1);"/><path d="M0,0 L1,0 L1,1 L2,1 L2,0 L3,0 L3,1 L6,1 L6,2 L7,2 L7,4 L8,4 L8,5 L9,5 L9,6 L10,6 L10,7 L11,7 L11,8 L12,8 L12,9 L13,9 L13,10 L14,10 L14,11 L15,11 L15,12 L16,12 L16,13 L15,13 L15,14 L13,14 L13,13 L12,13 L12,15 L11,15 L11,14 L8,14 L8,12 L6,12 L6,10 L5,10 L5,9 L4,9 L4,8 L3,8 L3,6 L2,6 L2,4 L1,4 L1,2 L0,2 L0,0 " transform="translate(744,776)" style="fill: rgba(72,207,173,1);"/><path d="M3,0 L13,0 L13,1 L14,1 L14,14 L7,14 L7,15 L4,15 L4,16 L3,16 L3,17 L1,17 L1,18 L0,18 L0,16 L1,16 L1,15 L2,15 L2,14 L3,14 L3,13 L4,13 L4,7 L11,7 L11,5 L12,5 L12,4 L13,4 L13,2 L12,2 L12,1 L3,1 L3,0 " transform="translate(1141,934)" style="fill: rgba(160,212,104,1);"/><path d="M31,0 L32,0 L32,7 L31,7 L31,8 L30,8 L30,9 L29,9 L29,10 L28,10 L28,11 L27,11 L27,12 L26,12 L26,13 L23,13 L23,14 L11,14 L11,13 L5,13 L5,12 L4,12 L4,11 L3,11 L3,10 L2,10 L2,9 L1,9 L1,8 L0,8 L0,2 L1,2 L1,4 L3,4 L3,7 L4,7 L4,8 L6,8 L6,9 L7,9 L7,10 L8,10 L8,11 L11,11 L11,12 L20,12 L20,11 L22,11 L22,10 L23,10 L23,9 L25,9 L25,8 L26,8 L26,7 L27,7 L27,6 L28,6 L28,5 L29,5 L29,4 L30,4 L30,2 L31,2 L31,0 " transform="translate(880,924)" style="fill: rgba(255,232,96,1);"/><path d="M16,0 L18,0 L18,2 L17,2 L17,4 L16,4 L16,6 L15,6 L15,8 L14,8 L14,9 L13,9 L13,11 L14,11 L14,13 L12,13 L12,14 L10,14 L10,15 L9,15 L9,16 L7,16 L7,17 L6,17 L6,18 L4,18 L4,19 L3,19 L3,20 L0,20 L0,16 L1,16 L1,15 L2,15 L2,14 L3,14 L3,13 L4,13 L4,11 L5,11 L5,10 L6,10 L6,9 L8,9 L8,8 L9,8 L9,7 L10,7 L10,6 L11,6 L11,5 L12,5 L12,3 L13,3 L13,2 L15,2 L15,1 L16,1 L16,0 " transform="translate(878,736)" style="fill: rgba(216,51,74,1);"/><path d="M21,0 L23,0 L23,1 L28,1 L28,2 L29,2 L29,3 L27,3 L27,2 L24,2 L24,4 L23,4 L23,5 L21,5 L21,6 L20,6 L20,7 L19,7 L19,8 L18,8 L18,9 L16,9 L16,10 L14,10 L14,11 L6,11 L6,16 L7,16 L7,18 L5,18 L5,17 L4,17 L4,16 L3,16 L3,15 L2,15 L2,14 L1,14 L1,13 L0,13 L0,8 L10,8 L10,7 L14,7 L14,6 L16,6 L16,5 L17,5 L17,4 L18,4 L18,3 L19,3 L19,2 L20,2 L20,1 L21,1 L21,0 " transform="translate(560,921)" style="fill: rgba(172,146,236,1);"/><path d="M2,0 L4,0 L4,1 L6,1 L6,2 L8,2 L8,34 L7,34 L7,33 L6,33 L6,32 L5,32 L5,31 L3,31 L3,30 L2,30 L2,29 L1,29 L1,28 L0,28 L0,27 L1,27 L1,26 L5,26 L5,11 L4,11 L4,10 L3,10 L3,8 L2,8 L2,0 " transform="translate(598,881)" style="fill: rgba(128,103,183,1);"/><path d="M4,0 L12,0 L12,1 L13,1 L13,2 L14,2 L14,3 L15,3 L15,9 L14,9 L14,10 L13,10 L13,11 L12,11 L12,12 L10,12 L10,13 L3,13 L3,12 L1,12 L1,10 L0,10 L0,3 L1,3 L1,2 L2,2 L2,1 L4,1 L4,0 " transform="translate(1060,883)" style="fill: rgba(93,156,236,1);"/><path d="M2,0 L5,0 L5,1 L7,1 L7,2 L8,2 L8,3 L12,3 L12,5 L13,5 L13,6 L18,6 L18,7 L16,7 L16,15 L15,15 L15,8 L13,8 L13,7 L5,7 L5,6 L2,6 L2,5 L0,5 L0,4 L2,4 L2,0 " transform="translate(936,881)" style="fill: rgba(79,193,233,1);"/><path d="M4,0 L6,0 L6,2 L7,2 L7,4 L9,4 L9,5 L11,5 L11,6 L12,6 L12,7 L13,7 L13,8 L15,8 L15,23 L5,23 L5,12 L4,12 L4,11 L3,11 L3,10 L2,10 L2,9 L0,9 L0,8 L2,8 L2,7 L3,7 L3,6 L4,6 L4,3 L5,3 L5,2 L4,2 L4,0 " transform="translate(979,878)" style="fill: rgba(79,193,233,1);"/><path d="M1,0 L4,0 L4,5 L5,5 L5,6 L4,6 L4,10 L2,10 L2,9 L1,9 L1,8 L0,8 L0,1 L1,1 L1,0 " transform="translate(594,556)" style="fill: rgba(72,207,173,1);"/><path d="M4,0 L9,0 L9,1 L10,1 L10,2 L12,2 L12,3 L13,3 L13,4 L14,4 L14,12 L13,12 L13,13 L11,13 L11,14 L10,14 L10,15 L9,15 L9,17 L7,17 L7,15 L4,15 L4,14 L3,14 L3,13 L1,13 L1,11 L0,11 L0,5 L1,5 L1,3 L2,3 L2,2 L3,2 L3,1 L4,1 L4,0 " transform="translate(604,603)" style="fill: rgba(72,207,173,1);"/><path d="M6,0 L8,0 L8,4 L15,4 L15,13 L14,13 L14,16 L12,16 L12,19 L10,19 L10,18 L7,18 L7,17 L3,17 L3,16 L1,16 L1,15 L0,15 L0,8 L1,8 L1,7 L2,7 L2,5 L3,5 L3,4 L5,4 L5,1 L6,1 L6,0 " transform="translate(616,648)" style="fill: rgba(72,207,173,1);"/><path d="M5,0 L7,0 L7,1 L11,1 L11,2 L13,2 L13,3 L14,3 L14,4 L15,4 L15,13 L14,13 L14,14 L11,14 L11,21 L9,21 L9,23 L8,23 L8,22 L7,22 L7,21 L8,21 L8,20 L9,20 L9,16 L7,16 L7,15 L3,15 L3,14 L2,14 L2,13 L1,13 L1,11 L0,11 L0,7 L1,7 L1,4 L3,4 L3,3 L4,3 L4,2 L5,2 L5,0 " transform="translate(599,578)" style="fill: rgba(72,207,173,1);"/><path d="M5,0 L6,0 L6,5 L7,5 L7,6 L9,6 L9,7 L12,7 L12,8 L14,8 L14,20 L12,20 L12,21 L11,21 L11,26 L10,26 L10,27 L8,27 L8,25 L9,25 L9,21 L5,21 L5,20 L3,20 L3,19 L2,19 L2,18 L1,18 L1,17 L0,17 L0,11 L1,11 L1,9 L2,9 L2,8 L3,8 L3,7 L4,7 L4,1 L5,1 L5,0 " transform="translate(610,621)" style="fill: rgba(72,207,173,1);"/><path d="M13,0 L17,0 L17,1 L25,1 L25,10 L19,10 L19,11 L8,11 L8,12 L7,12 L7,13 L6,13 L6,14 L2,14 L2,11 L3,11 L3,6 L1,6 L1,8 L0,8 L0,5 L3,5 L3,4 L7,4 L7,3 L12,3 L12,1 L13,1 L13,0 " transform="translate(827,911)" style="fill: rgba(160,212,104,1);"/><path d="M15,0 L16,0 L16,1 L17,1 L17,3 L16,3 L16,6 L15,6 L15,9 L13,9 L13,11 L12,11 L12,12 L11,12 L11,14 L10,14 L10,16 L9,16 L9,17 L8,17 L8,19 L7,19 L7,20 L6,20 L6,21 L5,21 L5,22 L4,22 L4,23 L3,23 L3,24 L0,24 L0,22 L1,22 L1,21 L2,21 L2,20 L3,20 L3,19 L4,19 L4,18 L5,18 L5,15 L6,15 L6,14 L7,14 L7,11 L8,11 L8,10 L9,10 L9,9 L10,9 L10,8 L11,8 L11,6 L12,6 L12,4 L13,4 L13,3 L14,3 L14,1 L15,1 L15,0 " transform="translate(725,1007)" style="fill: rgba(255,232,96,1);"/><path d="M33,0 L34,0 L34,2 L33,2 L33,4 L34,4 L34,6 L33,6 L33,7 L32,7 L32,8 L31,8 L31,10 L30,10 L30,11 L29,11 L29,12 L28,12 L28,15 L27,15 L27,18 L26,18 L26,22 L25,22 L25,23 L24,23 L24,25 L23,25 L23,28 L22,28 L22,30 L21,30 L21,32 L20,32 L20,36 L19,36 L19,37 L18,37 L18,41 L17,41 L17,42 L16,42 L16,45 L15,45 L15,47 L14,47 L14,48 L13,48 L13,51 L12,51 L12,53 L9,53 L9,52 L8,52 L8,51 L7,51 L7,50 L5,50 L5,49 L4,49 L4,48 L0,48 L0,45 L1,45 L1,44 L2,44 L2,43 L3,43 L3,42 L9,42 L9,41 L10,41 L10,40 L11,40 L11,39 L12,39 L12,38 L13,38 L13,37 L14,37 L14,36 L15,36 L15,35 L16,35 L16,33 L17,33 L17,32 L18,32 L18,28 L20,28 L20,25 L21,25 L21,23 L22,23 L22,21 L23,21 L23,19 L24,19 L24,17 L25,17 L25,15 L26,15 L26,12 L27,12 L27,10 L28,10 L28,8 L29,8 L29,6 L30,6 L30,5 L31,5 L31,3 L32,3 L32,1 L33,1 L33,0 " transform="translate(722,991)" style="fill: rgba(255,232,96,1);"/><path d="M2,0 L4,0 L4,4 L3,4 L3,9 L0,9 L0,2 L1,2 L1,1 L2,1 L2,0 " transform="translate(417,1044)" style="fill: rgba(216,51,74,1);"/><path d="M2,0 L3,0 L3,1 L4,1 L4,2 L8,2 L8,3 L10,3 L10,4 L11,4 L11,5 L13,5 L13,6 L15,6 L15,8 L9,8 L9,7 L6,7 L6,6 L5,6 L5,5 L4,5 L4,3 L0,3 L0,2 L2,2 L2,0 " transform="translate(406,1059)" style="fill: rgba(216,51,74,1);"/><path d="M0,4 L1,4 L1,9 L4,9 L4,4 L5,4 L5,10 L7,10 L7,11 L9,11 L9,14 L4,14 L4,13 L3,13 L3,12 L2,12 L2,10 L0,10 L0,4 " transform="translate(416,1044)" style="fill: rgba(216,51,74,1);"/><path d="M0,0 L2,0 L2,1 L3,1 L3,2 L4,2 L4,3 L6,3 L6,4 L7,4 L7,5 L9,5 L9,6 L11,6 L11,7 L14,7 L14,8 L17,8 L17,9 L18,9 L18,12 L16,12 L16,11 L12,11 L12,10 L10,10 L10,9 L7,9 L7,8 L6,8 L6,7 L4,7 L4,6 L2,6 L2,5 L1,5 L1,4 L0,4 L0,3 L1,3 L1,1 L0,1 L0,0 " transform="translate(405,1064)" style="fill: rgba(216,51,74,1);"/><path d="M2,0 L7,0 L7,2 L9,2 L9,0 L11,0 L11,7 L12,7 L12,9 L13,9 L13,12 L14,12 L14,17 L15,17 L15,24 L16,24 L16,26 L15,26 L15,27 L10,27 L10,28 L6,28 L6,29 L2,29 L2,27 L3,27 L3,26 L8,26 L8,25 L1,25 L1,23 L4,23 L4,19 L3,19 L3,13 L0,13 L0,9 L2,9 L2,0 " transform="translate(436,1036)" style="fill: rgba(216,51,74,1);"/><path d="M10,0 L25,0 L25,3 L24,3 L24,9 L23,9 L23,10 L24,10 L24,20 L16,20 L16,19 L13,19 L13,17 L15,17 L15,15 L18,15 L18,13 L17,13 L17,12 L3,12 L3,11 L2,11 L2,10 L0,10 L0,5 L2,5 L2,4 L4,4 L4,2 L7,2 L7,1 L10,1 L10,0 " transform="translate(559,872)" style="fill: rgba(172,146,236,1);"/><path d="M30,0 L32,0 L32,4 L34,4 L34,15 L28,15 L28,16 L26,16 L26,17 L25,17 L25,18 L23,18 L23,19 L22,19 L22,20 L21,20 L21,22 L20,22 L20,23 L19,23 L19,25 L18,25 L18,27 L17,27 L17,28 L16,28 L16,29 L11,29 L11,27 L12,27 L12,26 L16,26 L16,21 L15,21 L15,19 L13,19 L13,18 L12,18 L12,17 L11,17 L11,16 L10,16 L10,15 L8,15 L8,14 L7,14 L7,13 L6,13 L6,12 L4,12 L4,11 L3,11 L3,10 L2,10 L2,9 L1,9 L1,8 L0,8 L0,6 L2,6 L2,7 L3,7 L3,8 L4,8 L4,9 L6,9 L6,10 L7,10 L7,11 L8,11 L8,12 L9,12 L9,13 L10,13 L10,14 L11,14 L11,15 L13,15 L13,13 L12,13 L12,8 L20,8 L20,7 L22,7 L22,6 L24,6 L24,5 L25,5 L25,4 L26,4 L26,3 L27,3 L27,2 L29,2 L29,1 L30,1 L30,0 " transform="translate(554,924)" style="fill: rgba(172,146,236,1);"/><path d="M9,0 L32,0 L32,1 L33,1 L33,3 L30,3 L30,2 L27,2 L27,1 L24,1 L24,11 L28,11 L28,10 L30,10 L30,9 L32,9 L32,8 L34,8 L34,7 L37,7 L37,9 L35,9 L35,10 L34,10 L34,11 L32,11 L32,12 L31,12 L31,13 L30,13 L30,14 L29,14 L29,15 L28,15 L28,16 L23,16 L23,17 L17,17 L17,18 L7,18 L7,17 L6,17 L6,16 L5,16 L5,15 L3,15 L3,14 L1,14 L1,12 L0,12 L0,10 L5,10 L5,11 L9,11 L9,8 L8,8 L8,4 L4,4 L4,5 L3,5 L3,6 L1,6 L1,7 L0,7 L0,5 L1,5 L1,4 L3,4 L3,3 L5,3 L5,2 L7,2 L7,1 L9,1 L9,0 " transform="translate(407,834)" style="fill: rgba(128,103,183,1);"/><path d="M3,0 L5,0 L5,5 L4,5 L4,6 L3,6 L3,7 L1,7 L1,6 L0,6 L0,3 L1,3 L1,2 L2,2 L2,1 L3,1 L3,0 " transform="translate(783,856)" style="fill: rgba(93,156,236,1);"/><path d="M2,0 L5,0 L5,2 L7,2 L7,5 L5,5 L5,6 L4,6 L4,8 L2,8 L2,7 L1,7 L1,6 L0,6 L0,2 L1,2 L1,1 L2,1 L2,0 " transform="translate(822,894)" style="fill: rgba(93,156,236,1);"/><path d="M2,0 L7,0 L7,1 L8,1 L8,5 L6,5 L6,6 L1,6 L1,5 L0,5 L0,2 L1,2 L1,1 L2,1 L2,0 " transform="translate(892,918)" style="fill: rgba(93,156,236,1);"/><path d="M2,0 L3,0 L3,27 L0,27 L0,15 L1,15 L1,4 L2,4 L2,0 " transform="translate(797,869)" style="fill: rgba(93,156,236,1);"/><path d="M0,0 L29,0 L29,4 L27,4 L27,3 L13,3 L13,4 L0,4 L0,0 " transform="translate(965,914)" style="fill: rgba(93,156,236,1);"/><path d="M0,0 L3,0 L3,2 L5,2 L5,3 L8,3 L8,4 L16,4 L16,5 L18,5 L18,12 L20,12 L20,13 L21,13 L21,14 L22,14 L22,15 L35,15 L35,17 L33,17 L33,18 L17,18 L17,28 L19,28 L19,35 L18,35 L18,36 L15,36 L15,34 L14,34 L14,29 L13,29 L13,28 L12,28 L12,27 L9,27 L9,25 L0,25 L0,0 " transform="translate(933,884)" style="fill: rgba(93,156,236,1);"/><path d="M11,0 L29,0 L29,1 L31,1 L31,2 L32,2 L32,3 L34,3 L34,4 L35,4 L35,5 L36,5 L36,10 L35,10 L35,11 L34,11 L34,13 L32,13 L32,14 L31,14 L31,15 L30,15 L30,16 L27,16 L27,17 L28,17 L28,18 L12,18 L12,17 L6,17 L6,16 L4,16 L4,15 L3,15 L3,14 L2,14 L2,13 L0,13 L0,7 L1,7 L1,5 L3,5 L3,4 L4,4 L4,3 L6,3 L6,2 L8,2 L8,1 L11,1 L11,0 " transform="translate(480,890)" style="fill: rgba(79,193,233,1);"/><path d="M1,0 L2,0 L2,2 L3,2 L3,3 L4,3 L4,4 L5,4 L5,5 L6,5 L6,6 L7,6 L7,7 L10,7 L10,8 L15,8 L15,7 L17,7 L17,6 L23,6 L23,11 L13,11 L13,12 L2,12 L2,13 L1,13 L1,15 L2,15 L2,16 L4,16 L4,17 L5,17 L5,18 L7,18 L7,19 L13,19 L13,18 L15,18 L15,17 L19,17 L19,20 L18,20 L18,22 L17,22 L17,23 L16,23 L16,24 L15,24 L15,25 L14,25 L14,26 L13,26 L13,27 L11,27 L11,28 L9,28 L9,29 L5,29 L5,33 L6,33 L6,34 L15,34 L15,33 L17,33 L17,32 L19,32 L19,31 L21,31 L21,29 L22,29 L22,28 L23,28 L23,26 L25,26 L25,24 L26,24 L26,22 L27,22 L27,20 L28,20 L28,18 L40,18 L40,31 L33,31 L33,34 L34,34 L34,36 L35,36 L35,40 L36,40 L36,44 L35,44 L35,46 L34,46 L34,47 L33,47 L33,48 L32,48 L32,49 L31,49 L31,50 L30,50 L30,52 L29,52 L29,53 L27,53 L27,54 L26,54 L26,55 L25,55 L25,56 L24,56 L24,57 L23,57 L23,58 L22,58 L22,59 L20,59 L20,60 L19,60 L19,61 L17,61 L17,62 L15,62 L15,63 L14,63 L14,66 L21,66 L21,65 L25,65 L25,64 L27,64 L27,63 L29,63 L29,62 L31,62 L31,61 L32,61 L32,60 L33,60 L33,59 L35,59 L35,58 L36,58 L36,57 L37,57 L37,56 L40,56 L40,57 L41,57 L41,58 L42,58 L42,59 L43,59 L43,60 L45,60 L45,61 L46,61 L46,62 L48,62 L48,63 L50,63 L50,64 L59,64 L59,65 L57,65 L57,66 L47,66 L47,65 L45,65 L45,64 L44,64 L44,63 L42,63 L42,62 L41,62 L41,61 L37,61 L37,62 L36,62 L36,63 L34,63 L34,64 L32,64 L32,65 L31,65 L31,66 L29,66 L29,67 L25,67 L25,68 L12,68 L12,61 L13,61 L13,60 L14,60 L14,59 L15,59 L15,58 L17,58 L17,57 L19,57 L19,56 L20,56 L20,55 L21,55 L21,54 L22,54 L22,53 L24,53 L24,52 L25,52 L25,51 L26,51 L26,50 L27,50 L27,49 L28,49 L28,48 L29,48 L29,46 L31,46 L31,44 L32,44 L32,43 L33,43 L33,40 L32,40 L32,38 L31,38 L31,29 L38,29 L38,20 L30,20 L30,21 L29,21 L29,23 L28,23 L28,25 L27,25 L27,28 L26,28 L26,29 L25,29 L25,31 L24,31 L24,32 L23,32 L23,34 L21,34 L21,35 L19,35 L19,36 L4,36 L4,35 L3,35 L3,27 L6,27 L6,26 L8,26 L8,25 L10,25 L10,24 L11,24 L11,23 L12,23 L12,22 L6,22 L6,21 L4,21 L4,20 L2,20 L2,19 L1,19 L1,18 L0,18 L0,10 L6,10 L6,9 L5,9 L5,8 L3,8 L3,7 L2,7 L2,6 L1,6 L1,0 " transform="translate(635,890)" style="fill: rgba(72,207,173,1);"/><path d="M0,0 L6,0 L6,4 L1,4 L1,3 L0,3 L0,0 " transform="translate(1153,642)" style="fill: rgba(160,212,104,1);"/><path d="M2,0 L8,0 L8,7 L7,7 L7,8 L1,8 L1,7 L0,7 L0,4 L1,4 L1,3 L2,3 L2,0 " transform="translate(1153,638)" style="fill: rgba(160,212,104,1);"/><path d="M2,0 L4,0 L4,2 L7,2 L7,1 L8,1 L8,0 L11,0 L11,12 L10,12 L10,11 L9,11 L9,10 L8,10 L8,9 L0,9 L0,2 L1,2 L1,1 L2,1 L2,0 " transform="translate(1094,620)" style="fill: rgba(160,212,104,1);"/><path d="M4,0 L7,0 L7,4 L10,4 L10,3 L17,3 L17,5 L18,5 L18,6 L19,6 L19,8 L18,8 L18,10 L11,10 L11,11 L16,11 L16,12 L17,12 L17,13 L18,13 L18,16 L14,16 L14,15 L10,15 L10,14 L7,14 L7,13 L2,13 L2,12 L0,12 L0,9 L1,9 L1,7 L2,7 L2,5 L3,5 L3,1 L4,1 L4,0 " transform="translate(1133,634)" style="fill: rgba(160,212,104,1);"/><path d="M2,0 L6,0 L6,9 L9,9 L9,7 L10,7 L10,3 L11,3 L11,1 L14,1 L14,3 L18,3 L18,6 L17,6 L17,7 L16,7 L16,8 L15,8 L15,9 L14,9 L14,14 L16,14 L16,12 L17,12 L17,10 L18,10 L18,9 L19,9 L19,7 L20,7 L20,6 L25,6 L25,8 L26,8 L26,12 L25,12 L25,14 L24,14 L24,16 L22,16 L22,17 L21,17 L21,18 L20,18 L20,21 L16,21 L16,20 L14,20 L14,19 L13,19 L13,18 L9,18 L9,14 L4,14 L4,13 L2,13 L2,12 L1,12 L1,11 L0,11 L0,5 L1,5 L1,2 L2,2 L2,0 " transform="translate(1108,623)" style="fill: rgba(160,212,104,1);"/><path d="M5,0 L32,0 L32,2 L34,2 L34,3 L35,3 L35,28 L32,28 L32,27 L30,27 L30,26 L24,26 L24,25 L22,25 L22,24 L19,24 L19,23 L14,23 L14,22 L11,22 L11,21 L9,21 L9,20 L5,20 L5,19 L3,19 L3,18 L1,18 L1,17 L0,17 L0,2 L2,2 L2,1 L5,1 L5,0 " transform="translate(1032,600)" style="fill: rgba(160,212,104,1);"/><path d="M1,0 L4,0 L4,1 L9,1 L9,4 L11,4 L11,5 L1,5 L1,2 L0,2 L0,1 L1,1 L1,0 " transform="translate(842,894)" style="fill: rgba(255,232,96,1);"/><path d="M6,0 L8,0 L8,6 L10,6 L10,7 L11,7 L11,9 L13,9 L13,13 L14,13 L14,24 L5,24 L5,25 L3,25 L3,21 L4,21 L4,22 L6,22 L6,23 L13,23 L13,17 L12,17 L12,19 L11,19 L11,13 L10,13 L10,11 L9,11 L9,10 L7,10 L7,9 L5,9 L5,8 L3,8 L3,7 L0,7 L0,5 L1,5 L1,4 L2,4 L2,3 L3,3 L3,2 L4,2 L4,1 L6,1 L6,0 " transform="translate(762,883)" style="fill: rgba(255,232,96,1);"/><path d="M16,0 L18,0 L18,1 L19,1 L19,2 L20,2 L20,3 L21,3 L21,4 L22,4 L22,5 L24,5 L24,6 L28,6 L28,9 L20,9 L20,7 L14,7 L14,9 L0,9 L0,1 L3,1 L3,2 L4,2 L4,3 L3,3 L3,4 L2,4 L2,7 L9,7 L9,6 L11,6 L11,5 L12,5 L12,4 L13,4 L13,3 L14,3 L14,2 L15,2 L15,1 L16,1 L16,0 " transform="translate(1052,947)" style="fill: rgba(255,232,96,1);"/><path d="M1,0 L2,0 L2,3 L3,3 L3,4 L4,4 L4,5 L5,5 L5,6 L15,6 L15,5 L22,5 L22,12 L4,12 L4,13 L3,13 L3,10 L5,10 L5,9 L3,9 L3,7 L1,7 L1,5 L0,5 L0,2 L1,2 L1,0 " transform="translate(749,924)" style="fill: rgba(255,232,96,1);"/><path d="M3,0 L13,0 L13,1 L14,1 L14,3 L15,3 L15,9 L13,9 L13,10 L12,10 L12,11 L11,11 L11,13 L4,13 L4,12 L3,12 L3,11 L2,11 L2,10 L1,10 L1,9 L0,9 L0,3 L1,3 L1,2 L2,2 L2,1 L3,1 L3,0 M5,3 L5,4 L4,4 L4,5 L3,5 L3,8 L4,8 L4,9 L9,9 L9,8 L11,8 L11,4 L10,4 L10,3 L5,3 " transform="translate(889,915)" style="fill: rgba(255,232,96,1);"/><path d="M5,0 L10,0 L10,1 L13,1 L13,2 L14,2 L14,3 L15,3 L15,9 L14,9 L14,10 L13,10 L13,11 L12,11 L12,12 L11,12 L11,14 L4,14 L4,13 L3,13 L3,12 L2,12 L2,11 L1,11 L1,9 L0,9 L0,4 L1,4 L1,3 L2,3 L2,2 L3,2 L3,1 L5,1 L5,0 M8,3 L8,4 L6,4 L6,5 L4,5 L4,8 L5,8 L5,9 L6,9 L6,10 L9,10 L9,9 L10,9 L10,8 L11,8 L11,7 L12,7 L12,5 L11,5 L11,4 L10,4 L10,3 L8,3 " transform="translate(837,932)" style="fill: rgba(255,232,96,1);"/><path d="M4,0 L12,0 L12,1 L15,1 L15,3 L16,3 L16,8 L15,8 L15,9 L14,9 L14,10 L13,10 L13,11 L12,11 L12,12 L11,12 L11,13 L5,13 L5,12 L3,12 L3,11 L1,11 L1,10 L0,10 L0,3 L1,3 L1,2 L2,2 L2,1 L4,1 L4,0 M7,2 L7,3 L6,3 L6,4 L5,4 L5,8 L6,8 L6,9 L7,9 L7,10 L9,10 L9,8 L10,8 L10,7 L12,7 L12,4 L10,4 L10,2 L7,2 " transform="translate(817,892)" style="fill: rgba(255,232,96,1);"/><path d="M1,0 L4,0 L4,10 L3,10 L3,11 L2,11 L2,18 L3,18 L3,19 L26,19 L26,18 L29,18 L29,17 L35,17 L35,16 L39,16 L39,15 L41,15 L41,11 L39,11 L39,10 L38,10 L38,9 L32,9 L32,8 L27,8 L27,7 L41,7 L41,8 L43,8 L43,4 L45,4 L45,2 L46,2 L46,42 L49,42 L49,43 L48,43 L48,44 L51,44 L51,45 L44,45 L44,18 L41,18 L41,19 L35,19 L35,20 L29,20 L29,21 L17,21 L17,22 L1,22 L1,21 L0,21 L0,9 L1,9 L1,0 " transform="translate(951,910)" style="fill: rgba(255,232,96,1);"/><path d="M13,0 L21,0 L21,1 L25,1 L25,4 L24,4 L24,3 L23,3 L23,2 L15,2 L15,5 L16,5 L16,6 L17,6 L17,7 L18,7 L18,8 L19,8 L19,9 L20,9 L20,10 L21,10 L21,11 L29,11 L29,12 L30,12 L30,13 L28,13 L28,14 L9,14 L9,17 L10,17 L10,18 L11,18 L11,19 L13,19 L13,20 L23,20 L23,21 L22,21 L22,22 L20,22 L20,23 L19,23 L19,24 L18,24 L18,25 L17,25 L17,26 L16,26 L16,27 L14,27 L14,28 L13,28 L13,29 L11,29 L11,30 L10,30 L10,31 L9,31 L9,32 L7,32 L7,33 L6,33 L6,34 L4,34 L4,35 L3,35 L3,38 L13,38 L13,37 L15,37 L15,36 L16,36 L16,35 L18,35 L18,37 L19,37 L19,38 L20,38 L20,39 L22,39 L22,47 L3,47 L3,51 L5,51 L5,52 L7,52 L7,53 L8,53 L8,54 L10,54 L10,55 L6,55 L6,56 L15,56 L15,57 L4,57 L4,55 L3,55 L3,53 L0,53 L0,46 L1,46 L1,45 L12,45 L12,44 L18,44 L18,40 L12,40 L12,41 L4,41 L4,40 L1,40 L1,32 L3,32 L3,31 L4,31 L4,30 L6,30 L6,29 L8,29 L8,28 L9,28 L9,27 L11,27 L11,26 L12,26 L12,25 L13,25 L13,24 L14,24 L14,23 L12,23 L12,22 L9,22 L9,21 L8,21 L8,20 L7,20 L7,19 L6,19 L6,11 L15,11 L15,9 L14,9 L14,7 L13,7 L13,0 " transform="translate(733,865)" style="fill: rgba(255,232,96,1);"/><path d="M31,0 L32,0 L32,1 L36,1 L36,2 L37,2 L37,4 L38,4 L38,5 L39,5 L39,33 L48,33 L48,34 L49,34 L49,35 L51,35 L51,47 L39,47 L39,55 L38,55 L38,58 L37,58 L37,59 L36,59 L36,62 L33,62 L33,63 L32,63 L32,69 L31,69 L31,73 L30,73 L30,81 L27,81 L27,82 L15,82 L15,83 L31,83 L31,82 L42,82 L42,89 L41,89 L41,92 L40,92 L40,93 L39,93 L39,94 L35,94 L35,95 L28,95 L28,96 L1,96 L1,83 L0,83 L0,81 L1,81 L1,80 L0,80 L0,79 L1,79 L1,77 L3,77 L3,78 L4,78 L4,85 L3,85 L3,86 L2,86 L2,93 L28,93 L28,92 L32,92 L32,91 L35,91 L35,90 L37,90 L37,89 L38,89 L38,88 L39,88 L39,85 L31,85 L31,86 L13,86 L13,87 L12,87 L12,81 L11,81 L11,79 L25,79 L25,78 L28,78 L28,74 L27,74 L27,71 L28,71 L28,69 L29,69 L29,67 L30,67 L30,60 L33,60 L33,58 L34,58 L34,57 L35,57 L35,56 L36,56 L36,49 L37,49 L37,44 L47,44 L47,43 L49,43 L49,39 L48,39 L48,38 L47,38 L47,37 L46,37 L46,36 L37,36 L37,10 L36,10 L36,7 L35,7 L35,6 L34,6 L34,5 L33,5 L33,4 L31,4 L31,3 L30,3 L30,1 L31,1 L31,0 " transform="translate(751,863)" style="fill: rgba(255,232,96,1);"/><path d="M30,0 L41,0 L41,1 L44,1 L44,2 L46,2 L46,3 L48,3 L48,4 L50,4 L50,5 L51,5 L51,6 L52,6 L52,7 L53,7 L53,50 L52,50 L52,59 L50,59 L50,62 L48,62 L48,63 L47,63 L47,64 L46,64 L46,67 L47,67 L47,68 L48,68 L48,70 L49,70 L49,72 L50,72 L50,82 L49,82 L49,86 L48,86 L48,87 L47,87 L47,88 L46,88 L46,90 L44,90 L44,92 L42,92 L42,93 L40,93 L40,94 L38,94 L38,95 L22,95 L22,94 L18,94 L18,92 L16,92 L16,91 L15,91 L15,90 L14,90 L14,82 L15,82 L15,83 L16,83 L16,86 L17,86 L17,88 L18,88 L18,89 L19,89 L19,90 L21,90 L21,91 L23,91 L23,92 L35,92 L35,91 L37,91 L37,90 L39,90 L39,89 L41,89 L41,88 L42,88 L42,86 L43,86 L43,85 L44,85 L44,83 L45,83 L45,82 L46,82 L46,79 L47,79 L47,74 L46,74 L46,71 L45,71 L45,70 L44,70 L44,69 L43,69 L43,68 L42,68 L42,66 L41,66 L41,65 L39,65 L39,64 L38,64 L38,63 L36,63 L36,62 L28,62 L28,63 L23,63 L23,64 L22,64 L22,65 L21,65 L21,66 L20,66 L20,67 L18,67 L18,68 L17,68 L17,71 L16,71 L16,72 L14,72 L14,70 L12,70 L12,68 L13,68 L13,67 L14,67 L14,64 L18,64 L18,63 L19,63 L19,62 L20,62 L20,61 L21,61 L21,60 L32,60 L32,59 L38,59 L38,50 L30,50 L30,49 L26,49 L26,50 L25,50 L25,52 L20,52 L20,53 L16,53 L16,54 L2,54 L2,53 L0,53 L0,51 L16,51 L16,50 L18,50 L18,49 L19,49 L19,48 L21,48 L21,47 L22,47 L22,46 L23,46 L23,44 L24,44 L24,43 L25,43 L25,42 L26,42 L26,40 L27,40 L27,38 L31,38 L31,39 L30,39 L30,40 L29,40 L29,44 L30,44 L30,46 L32,46 L32,47 L34,47 L34,48 L41,48 L41,58 L40,58 L40,62 L43,62 L43,61 L44,61 L44,60 L45,60 L45,59 L46,59 L46,58 L47,58 L47,56 L48,56 L48,54 L49,54 L49,50 L50,50 L50,42 L51,42 L51,9 L50,9 L50,8 L49,8 L49,7 L47,7 L47,6 L45,6 L45,5 L43,5 L43,4 L40,4 L40,3 L36,3 L36,2 L33,2 L33,8 L34,8 L34,9 L35,9 L35,11 L36,11 L36,12 L38,12 L38,13 L39,13 L39,14 L41,14 L41,15 L42,15 L42,23 L31,23 L31,24 L28,24 L28,26 L27,26 L27,25 L26,25 L26,24 L25,24 L25,23 L27,23 L27,21 L33,21 L33,20 L39,20 L39,18 L38,18 L38,16 L36,16 L36,15 L34,15 L34,14 L33,14 L33,12 L32,12 L32,11 L31,11 L31,10 L30,10 L30,0 " transform="translate(814,862)" style="fill: rgba(255,232,96,1);"/><path d="M0,0 L8,0 L8,1 L9,1 L9,3 L12,3 L12,4 L13,4 L13,9 L6,9 L6,8 L5,8 L5,7 L4,7 L4,6 L3,6 L3,5 L2,5 L2,4 L1,4 L1,3 L0,3 L0,0 " transform="translate(748,867)" style="fill: rgba(216,51,74,1);"/><path d="M0,0 L7,0 L7,1 L9,1 L9,2 L11,2 L11,3 L12,3 L12,4 L13,4 L13,5 L14,5 L14,11 L6,11 L6,10 L5,10 L5,8 L4,8 L4,7 L3,7 L3,5 L2,5 L2,4 L1,4 L1,2 L0,2 L0,0 " transform="translate(887,883)" style="fill: rgba(216,51,74,1);"/><path d="M0,0 L4,0 L4,1 L6,1 L6,2 L7,2 L7,3 L9,3 L9,4 L10,4 L10,5 L11,5 L11,6 L12,6 L12,7 L13,7 L13,9 L14,9 L14,10 L23,10 L23,11 L24,11 L24,13 L23,13 L23,14 L22,14 L22,16 L15,16 L15,22 L14,22 L14,23 L13,23 L13,24 L12,24 L12,25 L11,25 L11,26 L10,26 L10,27 L7,27 L7,23 L6,23 L6,12 L5,12 L5,11 L4,11 L4,9 L3,9 L3,7 L2,7 L2,5 L1,5 L1,3 L0,3 L0,0 " transform="translate(1130,925)" style="fill: rgba(216,51,74,1);"/><path d="M31,0 L36,0 L36,1 L38,1 L38,2 L39,2 L39,3 L40,3 L40,4 L41,4 L41,7 L40,7 L40,8 L12,8 L12,9 L5,9 L5,8 L3,8 L3,7 L2,7 L2,5 L1,5 L1,4 L0,4 L0,1 L31,1 L31,0 " transform="translate(874,896)" style="fill: rgba(216,51,74,1);"/><path d="M14,0 L16,0 L16,1 L18,1 L18,2 L19,2 L19,3 L20,3 L20,4 L21,4 L21,6 L22,6 L22,9 L23,9 L23,11 L22,11 L22,13 L21,13 L21,14 L20,14 L20,17 L21,17 L21,18 L22,18 L22,19 L24,19 L24,20 L25,20 L25,21 L26,21 L26,28 L22,28 L22,27 L20,27 L20,26 L19,26 L19,25 L18,25 L18,24 L17,24 L17,23 L16,23 L16,22 L14,22 L14,23 L13,23 L13,24 L12,24 L12,25 L11,25 L11,26 L10,26 L10,27 L9,27 L9,28 L7,28 L7,29 L0,29 L0,26 L1,26 L1,25 L2,25 L2,24 L3,24 L3,23 L4,23 L4,22 L5,22 L5,21 L6,21 L6,20 L7,20 L7,19 L8,19 L8,18 L9,18 L9,17 L10,17 L10,15 L11,15 L11,14 L12,14 L12,13 L13,13 L13,10 L14,10 L14,9 L15,9 L15,4 L14,4 L14,0 " transform="translate(1054,925)" style="fill: rgba(216,51,74,1);"/><path d="M16,0 L24,0 L24,1 L26,1 L26,2 L27,2 L27,11 L30,11 L30,10 L40,10 L40,11 L41,11 L41,15 L40,15 L40,16 L36,16 L36,17 L30,17 L30,18 L4,18 L4,17 L2,17 L2,16 L0,16 L0,12 L19,12 L19,4 L17,4 L17,3 L16,3 L16,0 " transform="translate(736,900)" style="fill: rgba(216,51,74,1);"/><path d="M4,0 L10,0 L10,1 L12,1 L12,2 L13,2 L13,3 L15,3 L15,4 L17,4 L17,5 L18,5 L18,6 L19,6 L19,7 L20,7 L20,17 L19,17 L19,23 L18,23 L18,27 L17,27 L17,32 L16,32 L16,34 L12,34 L12,35 L9,35 L9,36 L5,36 L5,37 L2,37 L2,36 L1,36 L1,35 L0,35 L0,30 L3,30 L3,29 L10,29 L10,28 L11,28 L11,11 L10,11 L10,10 L9,10 L9,9 L8,9 L8,8 L7,8 L7,7 L6,7 L6,4 L5,4 L5,2 L4,2 L4,0 " transform="translate(1145,919)" style="fill: rgba(216,51,74,1);"/><path d="M6,0 L10,0 L10,1 L11,1 L11,2 L12,2 L12,3 L13,3 L13,4 L15,4 L15,5 L16,5 L16,6 L17,6 L17,8 L18,8 L18,13 L17,13 L17,16 L16,16 L16,19 L18,19 L18,20 L20,20 L20,21 L22,21 L22,22 L23,22 L23,23 L24,23 L24,25 L25,25 L25,29 L24,29 L24,30 L23,30 L23,31 L20,31 L20,30 L19,30 L19,29 L18,29 L18,28 L16,28 L16,27 L14,27 L14,26 L12,26 L12,27 L10,27 L10,29 L9,29 L9,30 L8,30 L8,31 L6,31 L6,32 L0,32 L0,30 L1,30 L1,29 L2,29 L2,27 L4,27 L4,25 L5,25 L5,23 L6,23 L6,19 L7,19 L7,15 L8,15 L8,9 L7,9 L7,5 L6,5 L6,0 " transform="translate(1080,923)" style="fill: rgba(216,51,74,1);"/><path d="M20,0 L22,0 L22,1 L24,1 L24,2 L26,2 L26,3 L28,3 L28,4 L29,4 L29,5 L30,5 L30,6 L31,6 L31,9 L30,9 L30,11 L29,11 L29,12 L28,12 L28,14 L27,14 L27,16 L28,16 L28,17 L29,17 L29,18 L31,18 L31,19 L34,19 L34,20 L37,20 L37,21 L38,21 L38,28 L33,28 L33,27 L31,27 L31,26 L29,26 L29,25 L27,25 L27,24 L26,24 L26,23 L25,23 L25,22 L24,22 L24,21 L23,21 L23,20 L22,20 L22,19 L21,19 L21,20 L20,20 L20,21 L18,21 L18,22 L16,22 L16,23 L15,23 L15,24 L13,24 L13,25 L10,25 L10,26 L0,26 L0,25 L1,25 L1,24 L2,24 L2,23 L4,23 L4,22 L6,22 L6,21 L8,21 L8,20 L9,20 L9,19 L10,19 L10,18 L12,18 L12,17 L13,17 L13,16 L14,16 L14,15 L16,15 L16,14 L17,14 L17,13 L18,13 L18,12 L19,12 L19,10 L20,10 L20,4 L19,4 L19,1 L20,1 L20,0 " transform="translate(1126,872)" style="fill: rgba(216,51,74,1);"/><path d="M16,0 L51,0 L51,1 L54,1 L54,2 L55,2 L55,6 L53,6 L53,7 L50,7 L50,8 L1,8 L1,7 L0,7 L0,4 L2,4 L2,3 L5,3 L5,2 L9,2 L9,1 L16,1 L16,0 " transform="translate(1118,906)" style="fill: rgba(216,51,74,1);"/><path d="M8,0 L17,0 L17,1 L20,1 L20,2 L22,2 L22,3 L24,3 L24,4 L25,4 L25,5 L27,5 L27,6 L28,6 L28,7 L30,7 L30,8 L32,8 L32,9 L38,9 L38,8 L39,8 L39,7 L40,7 L40,5 L41,5 L41,3 L42,3 L42,1 L43,1 L43,0 L46,0 L46,9 L45,9 L45,11 L44,11 L44,13 L43,13 L43,14 L42,14 L42,15 L40,15 L40,16 L37,16 L37,17 L29,17 L29,16 L26,16 L26,15 L23,15 L23,14 L22,14 L22,13 L21,13 L21,12 L19,12 L19,11 L18,11 L18,10 L16,10 L16,9 L9,9 L9,10 L8,10 L8,11 L7,11 L7,13 L6,13 L6,14 L5,14 L5,15 L1,15 L1,14 L0,14 L0,8 L1,8 L1,6 L2,6 L2,5 L3,5 L3,3 L5,3 L5,2 L6,2 L6,1 L8,1 L8,0 " transform="translate(1309,903)" style="fill: rgba(216,51,74,1);"/><path d="M25,0 L32,0 L32,6 L30,6 L30,7 L29,7 L29,8 L28,8 L28,9 L27,9 L27,10 L26,10 L26,12 L29,12 L29,13 L31,13 L31,14 L33,14 L33,15 L35,15 L35,16 L36,16 L36,18 L37,18 L37,24 L36,24 L36,25 L34,25 L34,24 L32,24 L32,23 L30,23 L30,22 L29,22 L29,21 L28,21 L28,20 L27,20 L27,19 L26,19 L26,18 L24,18 L24,17 L23,17 L23,16 L20,16 L20,17 L19,17 L19,18 L18,18 L18,19 L17,19 L17,20 L15,20 L15,21 L14,21 L14,22 L13,22 L13,23 L12,23 L12,24 L10,24 L10,25 L0,25 L0,22 L1,22 L1,21 L3,21 L3,20 L4,20 L4,19 L6,19 L6,18 L7,18 L7,17 L8,17 L8,16 L10,16 L10,15 L11,15 L11,14 L13,14 L13,13 L14,13 L14,12 L15,12 L15,11 L16,11 L16,10 L17,10 L17,9 L19,9 L19,8 L20,8 L20,7 L10,7 L10,6 L8,6 L8,5 L7,5 L7,4 L6,4 L6,1 L25,1 L25,0 " transform="translate(736,878)" style="fill: rgba(216,51,74,1);"/><path d="M26,0 L27,0 L27,2 L30,2 L30,3 L29,3 L29,4 L28,4 L28,5 L29,5 L29,6 L30,6 L30,7 L31,7 L31,9 L32,9 L32,12 L33,12 L33,16 L32,16 L32,17 L31,17 L31,19 L30,19 L30,20 L31,20 L31,21 L32,21 L32,22 L33,22 L33,23 L35,23 L35,24 L37,24 L37,25 L39,25 L39,26 L41,26 L41,27 L43,27 L43,28 L47,28 L47,29 L49,29 L49,33 L47,33 L47,34 L36,34 L36,33 L34,33 L34,32 L32,32 L32,31 L31,31 L31,30 L29,30 L29,29 L28,29 L28,28 L27,28 L27,27 L26,27 L26,26 L23,26 L23,27 L22,27 L22,28 L21,28 L21,29 L19,29 L19,30 L18,30 L18,31 L17,31 L17,32 L15,32 L15,33 L13,33 L13,34 L11,34 L11,35 L7,35 L7,36 L0,36 L0,33 L1,33 L1,32 L3,32 L3,31 L5,31 L5,30 L6,30 L6,29 L8,29 L8,28 L9,28 L9,27 L10,27 L10,26 L11,26 L11,25 L12,25 L12,24 L13,24 L13,23 L15,23 L15,22 L16,22 L16,20 L17,20 L17,19 L18,19 L18,18 L19,18 L19,17 L20,17 L20,16 L21,16 L21,14 L22,14 L22,10 L21,10 L21,6 L20,6 L20,4 L19,4 L19,1 L26,1 L26,0 " transform="translate(649,920)" style="fill: rgba(216,51,74,1);"/><path d="M0,0 L4,0 L4,1 L5,1 L5,2 L7,2 L7,3 L9,3 L9,4 L11,4 L11,5 L12,5 L12,6 L14,6 L14,7 L15,7 L15,8 L16,8 L16,9 L17,9 L17,10 L19,10 L19,11 L20,11 L20,12 L21,12 L21,49 L20,49 L20,52 L19,52 L19,55 L18,55 L18,56 L17,56 L17,58 L16,58 L16,60 L15,60 L15,62 L12,62 L12,59 L11,59 L11,16 L10,16 L10,15 L9,15 L9,14 L8,14 L8,13 L7,13 L7,12 L6,12 L6,11 L5,11 L5,10 L4,10 L4,9 L3,9 L3,8 L2,8 L2,7 L1,7 L1,5 L0,5 L0,0 " transform="translate(677,869)" style="fill: rgba(216,51,74,1);"/><path d="M0,0 L6,0 L6,1 L10,1 L10,2 L12,2 L12,3 L14,3 L14,4 L15,4 L15,5 L16,5 L16,6 L17,6 L17,9 L18,9 L18,35 L27,35 L27,36 L28,36 L28,37 L29,37 L29,38 L30,38 L30,42 L28,42 L28,43 L18,43 L18,48 L17,48 L17,55 L16,55 L16,56 L15,56 L15,57 L14,57 L14,58 L10,58 L10,15 L9,15 L9,12 L8,12 L8,11 L6,11 L6,10 L5,10 L5,9 L3,9 L3,8 L2,8 L2,7 L1,7 L1,6 L0,6 L0,0 " transform="translate(770,864)" style="fill: rgba(216,51,74,1);"/><path d="M0,0 L5,0 L5,1 L7,1 L7,2 L9,2 L9,3 L11,3 L11,4 L13,4 L13,5 L14,5 L14,6 L16,6 L16,7 L17,7 L17,32 L26,32 L26,33 L28,33 L28,34 L29,34 L29,35 L31,35 L31,39 L30,39 L30,41 L29,41 L29,42 L21,42 L21,41 L17,41 L17,46 L16,46 L16,49 L15,49 L15,51 L14,51 L14,53 L13,53 L13,54 L12,54 L12,55 L11,55 L11,56 L10,56 L10,57 L7,57 L7,53 L8,53 L8,11 L7,11 L7,10 L6,10 L6,9 L4,9 L4,8 L3,8 L3,7 L2,7 L2,6 L1,6 L1,5 L0,5 L0,0 " transform="translate(1084,865)" style="fill: rgba(216,51,74,1);"/><path d="M32,0 L36,0 L36,1 L37,1 L37,2 L38,2 L38,7 L36,7 L36,9 L35,9 L35,10 L34,10 L34,11 L33,11 L33,12 L32,12 L32,13 L31,13 L31,15 L30,15 L30,16 L29,16 L29,17 L30,17 L30,18 L32,18 L32,19 L33,19 L33,20 L35,20 L35,21 L36,21 L36,22 L37,22 L37,23 L38,23 L38,24 L39,24 L39,25 L40,25 L40,26 L41,26 L41,31 L40,31 L40,33 L34,33 L34,32 L33,32 L33,31 L32,31 L32,30 L31,30 L31,29 L30,29 L30,28 L29,28 L29,26 L28,26 L28,25 L27,25 L27,24 L25,24 L25,23 L23,23 L23,25 L21,25 L21,27 L20,27 L20,28 L19,28 L19,29 L18,29 L18,30 L17,30 L17,31 L16,31 L16,32 L15,32 L15,33 L14,33 L14,34 L12,34 L12,35 L8,35 L8,36 L1,36 L1,35 L0,35 L0,33 L2,33 L2,32 L3,32 L3,31 L5,31 L5,30 L6,30 L6,29 L7,29 L7,28 L8,28 L8,27 L9,27 L9,26 L10,26 L10,25 L11,25 L11,24 L12,24 L12,23 L13,23 L13,22 L14,22 L14,21 L15,21 L15,20 L16,20 L16,19 L17,19 L17,18 L18,18 L18,16 L19,16 L19,15 L20,15 L20,14 L21,14 L21,13 L22,13 L22,11 L24,11 L24,9 L12,9 L12,8 L11,8 L11,7 L10,7 L10,6 L9,6 L9,5 L8,5 L8,2 L28,2 L28,1 L32,1 L32,0 " transform="translate(562,893)" style="fill: rgba(216,51,74,1);"/><path d="M21,0 L25,0 L25,1 L26,1 L26,2 L27,2 L27,3 L28,3 L28,4 L29,4 L29,8 L28,8 L28,10 L27,10 L27,12 L26,12 L26,15 L27,15 L27,19 L24,19 L24,20 L10,20 L10,22 L11,22 L11,28 L12,28 L12,27 L30,27 L30,26 L38,26 L38,29 L37,29 L37,30 L36,30 L36,31 L34,31 L34,32 L31,32 L31,33 L27,33 L27,34 L1,34 L1,27 L2,27 L2,26 L3,26 L3,19 L2,19 L2,18 L1,18 L1,14 L19,14 L19,7 L12,7 L12,8 L2,8 L2,7 L1,7 L1,6 L0,6 L0,2 L16,2 L16,1 L21,1 L21,0 " transform="translate(752,922)" style="fill: rgba(216,51,74,1);"/><path d="M11,0 L21,0 L21,1 L23,1 L23,2 L25,2 L25,3 L26,3 L26,4 L27,4 L27,5 L28,5 L28,6 L29,6 L29,7 L30,7 L30,19 L29,19 L29,21 L28,21 L28,22 L27,22 L27,23 L26,23 L26,24 L25,24 L25,25 L24,25 L24,26 L22,26 L22,27 L21,27 L21,28 L19,28 L19,29 L10,29 L10,28 L7,28 L7,27 L6,27 L6,26 L5,26 L5,25 L3,25 L3,24 L2,24 L2,21 L0,21 L0,9 L1,9 L1,8 L2,8 L2,6 L3,6 L3,5 L4,5 L4,4 L6,4 L6,3 L7,3 L7,2 L9,2 L9,1 L11,1 L11,0 M11,8 L11,9 L10,9 L10,10 L9,10 L9,11 L8,11 L8,17 L9,17 L9,18 L10,18 L10,19 L11,19 L11,20 L12,20 L12,21 L19,21 L19,19 L20,19 L20,18 L21,18 L21,17 L23,17 L23,11 L22,11 L22,9 L21,9 L21,8 L11,8 " transform="translate(881,907)" style="fill: rgba(216,51,74,1);"/><path d="M4,0 L7,0 L7,1 L11,1 L11,2 L14,2 L14,3 L16,3 L16,4 L18,4 L18,5 L20,5 L20,6 L21,6 L21,7 L22,7 L22,40 L21,40 L21,48 L20,48 L20,52 L19,52 L19,54 L18,54 L18,56 L17,56 L17,57 L16,57 L16,58 L15,58 L15,59 L14,59 L14,60 L11,60 L11,56 L12,56 L12,46 L5,46 L5,45 L3,45 L3,44 L1,44 L1,42 L0,42 L0,38 L4,38 L4,37 L13,37 L13,29 L6,29 L6,28 L4,28 L4,27 L3,27 L3,26 L2,26 L2,24 L1,24 L1,22 L2,22 L2,21 L13,21 L13,13 L12,13 L12,12 L10,12 L10,11 L9,11 L9,10 L7,10 L7,9 L6,9 L6,7 L5,7 L5,6 L4,6 L4,0 " transform="translate(843,864)" style="fill: rgba(216,51,74,1);"/><path d="M13,0 L21,0 L21,1 L23,1 L23,2 L24,2 L24,3 L26,3 L26,4 L27,4 L27,6 L28,6 L28,7 L29,7 L29,8 L30,8 L30,9 L31,9 L31,12 L32,12 L32,17 L31,17 L31,20 L30,20 L30,21 L29,21 L29,23 L28,23 L28,24 L27,24 L27,26 L26,26 L26,27 L24,27 L24,28 L22,28 L22,29 L20,29 L20,30 L8,30 L8,29 L6,29 L6,28 L4,28 L4,27 L3,27 L3,26 L2,26 L2,24 L1,24 L1,21 L0,21 L0,10 L1,10 L1,9 L2,9 L2,6 L3,6 L3,5 L5,5 L5,4 L6,4 L6,3 L7,3 L7,2 L8,2 L8,1 L13,1 L13,0 M13,8 L13,9 L11,9 L11,10 L10,10 L10,11 L9,11 L9,12 L8,12 L8,17 L9,17 L9,19 L10,19 L10,20 L11,20 L11,21 L12,21 L12,22 L19,22 L19,20 L20,20 L20,19 L21,19 L21,18 L22,18 L22,17 L23,17 L23,11 L22,11 L22,10 L21,10 L21,9 L18,9 L18,8 L13,8 " transform="translate(829,924)" style="fill: rgba(216,51,74,1);"/><path d="M16,0 L23,0 L23,1 L25,1 L25,2 L27,2 L27,3 L28,3 L28,4 L29,4 L29,5 L30,5 L30,7 L31,7 L31,9 L32,9 L32,21 L31,21 L31,22 L30,22 L30,23 L29,23 L29,25 L28,25 L28,26 L27,26 L27,27 L25,27 L25,28 L24,28 L24,29 L22,29 L22,30 L9,30 L9,29 L7,29 L7,28 L6,28 L6,27 L5,27 L5,26 L4,26 L4,25 L3,25 L3,24 L2,24 L2,23 L1,23 L1,21 L0,21 L0,10 L1,10 L1,9 L2,9 L2,8 L3,8 L3,6 L5,6 L5,5 L7,5 L7,4 L8,4 L8,3 L11,3 L11,2 L13,2 L13,1 L16,1 L16,0 M13,9 L13,10 L11,10 L11,11 L10,11 L10,12 L9,12 L9,19 L10,19 L10,20 L12,20 L12,21 L14,21 L14,22 L20,22 L20,21 L21,21 L21,20 L22,20 L22,19 L23,19 L23,18 L24,18 L24,17 L25,17 L25,12 L24,12 L24,10 L21,10 L21,9 L13,9 " transform="translate(808,883)" style="fill: rgba(216,51,74,1);"/><path d="M18,0 L25,0 L25,1 L26,1 L26,2 L27,2 L27,3 L28,3 L28,4 L29,4 L29,8 L28,8 L28,12 L27,12 L27,13 L26,13 L26,16 L27,16 L27,17 L28,17 L28,23 L27,23 L27,24 L10,24 L10,33 L11,33 L11,32 L26,32 L26,31 L37,31 L37,32 L38,32 L38,33 L40,33 L40,37 L38,37 L38,38 L34,38 L34,39 L28,39 L28,40 L25,40 L25,41 L2,41 L2,40 L1,40 L1,33 L2,33 L2,32 L3,32 L3,22 L2,22 L2,21 L1,21 L1,20 L0,20 L0,17 L17,17 L17,16 L19,16 L19,8 L12,8 L12,9 L7,9 L7,8 L5,8 L5,7 L4,7 L4,6 L3,6 L3,5 L2,5 L2,2 L9,2 L9,1 L18,1 L18,0 " transform="translate(952,888)" style="fill: rgba(216,51,74,1);"/><path d="M4,0 L10,0 L10,1 L11,1 L11,2 L12,2 L12,3 L14,3 L14,4 L16,4 L16,5 L17,5 L17,6 L19,6 L19,7 L21,7 L21,8 L22,8 L22,9 L23,9 L23,10 L24,10 L24,68 L23,68 L23,71 L22,71 L22,77 L21,77 L21,79 L20,79 L20,80 L19,80 L19,81 L18,81 L18,82 L15,82 L15,42 L5,42 L5,41 L4,41 L4,40 L3,40 L3,39 L2,39 L2,38 L0,38 L0,36 L1,36 L1,35 L4,35 L4,34 L15,34 L15,14 L13,14 L13,13 L11,13 L11,12 L10,12 L10,10 L9,10 L9,9 L8,9 L8,8 L7,8 L7,7 L6,7 L6,6 L5,6 L5,4 L3,4 L3,1 L4,1 L4,0 " transform="translate(982,870)" style="fill: rgba(216,51,74,1);"/><path d="M0,0 L4,0 L4,1 L6,1 L6,2 L8,2 L8,3 L10,3 L10,4 L12,4 L12,5 L14,5 L14,6 L16,6 L16,7 L17,7 L17,8 L18,8 L18,43 L28,43 L28,44 L29,44 L29,45 L31,45 L31,46 L32,46 L32,50 L31,50 L31,51 L30,51 L30,53 L18,53 L18,70 L17,70 L17,75 L16,75 L16,77 L15,77 L15,81 L14,81 L14,84 L13,84 L13,86 L11,86 L11,88 L8,88 L8,87 L7,87 L7,86 L8,86 L8,12 L7,12 L7,11 L5,11 L5,10 L4,10 L4,9 L3,9 L3,8 L2,8 L2,7 L1,7 L1,5 L0,5 L0,0 " transform="translate(912,869)" style="fill: rgba(216,51,74,1);"/><path d="M0,0 L7,0 L7,1 L8,1 L8,2 L10,2 L10,3 L12,3 L12,4 L13,4 L13,5 L15,5 L15,6 L16,6 L16,7 L17,7 L17,8 L18,8 L18,42 L27,42 L27,43 L28,43 L28,44 L29,44 L29,45 L31,45 L31,50 L30,50 L30,51 L29,51 L29,52 L17,52 L17,67 L16,67 L16,72 L15,72 L15,79 L14,79 L14,82 L13,82 L13,84 L12,84 L12,85 L11,85 L11,87 L10,87 L10,88 L8,88 L8,87 L7,87 L7,86 L6,86 L6,80 L7,80 L7,11 L6,11 L6,10 L4,10 L4,9 L3,9 L3,8 L2,8 L2,7 L1,7 L1,6 L0,6 L0,0 " transform="translate(601,870)" style="fill: rgba(216,51,74,1);"/><path d="M15,0 L27,0 L27,1 L29,1 L29,2 L30,2 L30,3 L32,3 L32,5 L33,5 L33,6 L34,6 L34,8 L35,8 L35,18 L34,18 L34,20 L33,20 L33,22 L32,22 L32,23 L31,23 L31,24 L30,24 L30,25 L29,25 L29,26 L28,26 L28,27 L25,27 L25,30 L26,30 L26,36 L39,36 L39,37 L40,37 L40,38 L41,38 L41,40 L42,40 L42,42 L41,42 L41,43 L40,43 L40,44 L35,44 L35,43 L13,43 L13,44 L5,44 L5,45 L0,45 L0,42 L1,42 L1,41 L2,41 L2,40 L5,40 L5,39 L7,39 L7,38 L13,38 L13,37 L18,37 L18,36 L19,36 L19,31 L18,31 L18,30 L17,30 L17,29 L16,29 L16,28 L13,28 L13,27 L11,27 L11,26 L10,26 L10,25 L9,25 L9,24 L8,24 L8,23 L7,23 L7,22 L6,22 L6,20 L5,20 L5,9 L6,9 L6,7 L7,7 L7,6 L8,6 L8,5 L9,5 L9,4 L10,4 L10,3 L11,3 L11,2 L13,2 L13,1 L15,1 L15,0 M17,7 L17,8 L15,8 L15,9 L14,9 L14,10 L13,10 L13,17 L14,17 L14,19 L16,19 L16,20 L23,20 L23,19 L25,19 L25,18 L26,18 L26,17 L27,17 L27,16 L28,16 L28,10 L27,10 L27,9 L26,9 L26,8 L25,8 L25,7 L17,7 " transform="translate(1047,876)" style="fill: rgba(216,51,74,1);"/><path d="M29,0 L32,0 L32,1 L36,1 L36,2 L37,2 L37,3 L39,3 L39,4 L40,4 L40,5 L42,5 L42,6 L43,6 L43,7 L45,7 L45,8 L46,8 L46,9 L47,9 L47,10 L48,10 L48,72 L47,72 L47,75 L46,75 L46,78 L45,78 L45,80 L44,80 L44,82 L43,82 L43,83 L40,83 L40,53 L12,53 L12,54 L10,54 L10,55 L8,55 L8,54 L7,54 L7,34 L6,34 L6,31 L5,31 L5,30 L4,30 L4,28 L3,28 L3,27 L2,27 L2,26 L1,26 L1,25 L0,25 L0,23 L1,23 L1,22 L5,22 L5,23 L6,23 L6,24 L7,24 L7,25 L9,25 L9,26 L10,26 L10,27 L11,27 L11,28 L12,28 L12,30 L13,30 L13,31 L14,31 L14,33 L15,33 L15,45 L40,45 L40,14 L39,14 L39,13 L37,13 L37,12 L36,12 L36,11 L35,11 L35,10 L34,10 L34,9 L33,9 L33,8 L32,8 L32,7 L31,7 L31,6 L30,6 L30,5 L29,5 L29,4 L28,4 L28,1 L29,1 L29,0 " transform="translate(1178,870)" style="fill: rgba(216,51,74,1);"/><path d="M32,0 L37,0 L37,1 L39,1 L39,2 L42,2 L42,3 L44,3 L44,4 L45,4 L45,5 L47,5 L47,6 L48,6 L48,7 L49,7 L49,9 L50,9 L50,42 L58,42 L58,43 L61,43 L61,45 L62,45 L62,46 L63,46 L63,50 L62,50 L62,51 L61,51 L61,52 L52,52 L52,51 L49,51 L49,70 L48,70 L48,74 L47,74 L47,76 L46,76 L46,82 L45,82 L45,83 L44,83 L44,84 L43,84 L43,86 L42,86 L42,87 L40,87 L40,86 L39,86 L39,72 L40,72 L40,56 L41,56 L41,54 L37,54 L37,55 L33,55 L33,56 L29,56 L29,57 L17,57 L17,58 L6,58 L6,57 L4,57 L4,56 L3,56 L3,55 L2,55 L2,54 L1,54 L1,52 L0,52 L0,49 L1,49 L1,43 L2,43 L2,30 L1,30 L1,25 L2,25 L2,23 L22,23 L22,22 L29,22 L29,27 L28,27 L28,28 L27,28 L27,30 L25,30 L25,31 L11,31 L11,47 L10,47 L10,49 L19,49 L19,48 L40,48 L40,11 L39,11 L39,10 L37,10 L37,9 L36,9 L36,8 L35,8 L35,7 L34,7 L34,6 L33,6 L33,4 L32,4 L32,0 " transform="translate(1239,870)" style="fill: rgba(216,51,74,1);"/><path d="M30,0 L33,0 L33,1 L36,1 L36,2 L38,2 L38,3 L40,3 L40,4 L41,4 L41,5 L43,5 L43,6 L44,6 L44,7 L45,7 L45,8 L46,8 L46,9 L47,9 L47,35 L46,35 L46,37 L45,37 L45,42 L44,42 L44,43 L43,43 L43,45 L42,45 L42,46 L41,46 L41,47 L42,47 L42,48 L43,48 L43,49 L44,49 L44,51 L45,51 L45,54 L46,54 L46,58 L45,58 L45,59 L44,59 L44,61 L43,61 L43,62 L44,62 L44,63 L45,63 L45,64 L46,64 L46,65 L48,65 L48,66 L50,66 L50,67 L52,67 L52,68 L54,68 L54,69 L56,69 L56,70 L60,70 L60,71 L62,71 L62,75 L60,75 L60,76 L49,76 L49,75 L47,75 L47,74 L45,74 L45,73 L44,73 L44,72 L42,72 L42,71 L41,71 L41,70 L40,70 L40,69 L39,69 L39,68 L36,68 L36,69 L35,69 L35,70 L34,70 L34,71 L32,71 L32,72 L31,72 L31,73 L30,73 L30,74 L28,74 L28,75 L26,75 L26,76 L24,76 L24,77 L20,77 L20,78 L13,78 L13,75 L14,75 L14,74 L16,74 L16,73 L18,73 L18,72 L19,72 L19,71 L21,71 L21,70 L22,70 L22,69 L23,69 L23,68 L24,68 L24,67 L25,67 L25,66 L26,66 L26,65 L28,65 L28,64 L29,64 L29,62 L30,62 L30,61 L31,61 L31,60 L32,60 L32,59 L33,59 L33,58 L34,58 L34,56 L35,56 L35,52 L34,52 L34,48 L33,48 L33,46 L32,46 L32,43 L39,43 L39,30 L27,30 L27,32 L26,32 L26,34 L25,34 L25,36 L24,36 L24,38 L22,38 L22,40 L21,40 L21,41 L20,41 L20,43 L18,43 L18,44 L16,44 L16,45 L14,45 L14,46 L5,46 L5,45 L4,45 L4,41 L8,41 L8,40 L10,40 L10,39 L12,39 L12,38 L13,38 L13,37 L14,37 L14,36 L15,36 L15,35 L16,35 L16,34 L17,34 L17,32 L18,32 L18,29 L14,29 L14,30 L12,30 L12,31 L6,31 L6,30 L4,30 L4,29 L3,29 L3,28 L1,28 L1,27 L0,27 L0,25 L1,25 L1,24 L12,24 L12,23 L22,23 L22,18 L16,18 L16,19 L14,19 L14,20 L9,20 L9,19 L6,19 L6,18 L5,18 L5,17 L4,17 L4,16 L3,16 L3,15 L2,15 L2,14 L1,14 L1,11 L22,11 L22,10 L24,10 L24,9 L29,9 L29,10 L31,10 L31,11 L32,11 L32,18 L31,18 L31,20 L30,20 L30,22 L39,22 L39,12 L38,12 L38,11 L37,11 L37,10 L36,10 L36,9 L35,9 L35,8 L33,8 L33,7 L32,7 L32,5 L31,5 L31,4 L30,4 L30,0 " transform="translate(636,878)" style="fill: rgba(216,51,74,1);"/></svg>